<svg xmlns="http://www.w3.org/2000/svg" xmlns:xlink="http://www.w3.org/1999/xlink" width="299" height="200.513" viewBox="0 0 299 200.513"><defs><style>.a{opacity:0.2;}.b{fill:#3f3d56;}.c,.e{fill:#6c63ff;}.d,.e,.r{opacity:0.1;}.f{fill:url(#a);}.g{fill:#a1616a;}.h{fill:#46455b;}.i{fill:#bbbdc8;}.j{fill:url(#b);}.k{fill:#99d55c;}.l{fill:#f6987e;}.m{fill:#fc4a4a;}.n{fill:#fda8a8;}.o{fill:#eeeff3;}.p{fill:#f75842;}.q{fill:#ffd566;}</style><linearGradient id="a" x1="0.5" y1="1" x2="0.5" gradientUnits="objectBoundingBox"><stop offset="0" stop-color="gray" stop-opacity="0.251"/><stop offset="0.54" stop-color="gray" stop-opacity="0.122"/><stop offset="1" stop-color="gray" stop-opacity="0.102"/></linearGradient><linearGradient id="b" x1="0.5" y1="1" x2="0.5" y2="0" xlink:href="#a"/></defs><g transform="translate(-0.106 -0.001)"><g class="a" transform="translate(49.457 25.708)"><path class="b" d="M432.751,728.243a11.772,11.772,0,0,0,.6,1.8q5.763-2.264,11.652-4.339c-.033-.163-.066-.334-.108-.5a10.2,10.2,0,0,0-2.449-4.654,5.774,5.774,0,0,0-5.561-1.971,5.94,5.94,0,0,0-4.049,4.367A10.334,10.334,0,0,0,432.751,728.243Z" transform="translate(-378.656 -569.763)"/><ellipse class="b" cx="6.257" cy="8.372" rx="6.257" ry="8.372" transform="translate(49.857 140.206) rotate(-12.59)"/><ellipse class="b" cx="6.257" cy="8.372" rx="6.257" ry="8.372" transform="translate(47.49 130.252) rotate(-12.59)"/><ellipse class="b" cx="6.257" cy="8.372" rx="6.257" ry="8.372" transform="translate(45.119 120.303) rotate(-12.59)"/><ellipse class="b" cx="6.257" cy="8.372" rx="6.257" ry="8.372" transform="translate(42.747 110.352) rotate(-12.59)"/><path class="c" d="M295.015,223.885a30.831,30.831,0,0,0,1.454-3.974l-16.583,1.3,17.285-4.182a31.317,31.317,0,0,0-.307-13.123A30.955,30.955,0,0,0,292.1,193.29L271.87,211.379l17.514-21.411a29.431,29.431,0,0,0-28.713-8.568c-16.061,4.016-25.9,20.61-21.984,37.063a30.607,30.607,0,0,0,10.61,16.859,31.269,31.269,0,0,0-2.026,6.257l23.332,5.843-23.885-2.07a31.359,31.359,0,0,0,.741,9.95,30.634,30.634,0,0,0,10.613,16.859,31.19,31.19,0,0,0-1.835,19.974c3.919,16.453,20.115,26.533,36.176,22.52s25.9-20.607,21.984-37.06a30.634,30.634,0,0,0-10.613-16.859,31.19,31.19,0,0,0,1.835-19.974,30.615,30.615,0,0,0-10.6-16.876Z" transform="translate(-237.827 -180.514)"/><path class="d" d="M272.679,447.3a30.634,30.634,0,0,0,10.613,16.859,31.19,31.19,0,0,0-1.835,19.974c3.919,16.453,20.115,26.533,36.176,22.52s25.9-20.607,21.984-37.06A30.635,30.635,0,0,0,329,452.734C331.7,446.692,271.883,443.964,272.679,447.3Z" transform="translate(-263.041 -372.523)"/></g><g class="a" transform="translate(158.939 0.001)"><path class="b" d="M702.914,720.664a12.911,12.911,0,0,0-.119,2.172q7.227.116,14.51.487c.033-.191.066-.384.094-.58a11.518,11.518,0,0,0-.677-6.006,6.358,6.358,0,0,0-11.459-1.656,11.537,11.537,0,0,0-2.349,5.583Z" transform="translate(-683.763 -539.514)"/><ellipse class="b" cx="9.579" cy="7.319" rx="9.579" ry="7.319" transform="translate(19.461 179.047) rotate(-81.82)"/><ellipse class="b" cx="9.579" cy="7.319" rx="9.579" ry="7.319" transform="translate(21.127 167.457) rotate(-81.82)"/><ellipse class="b" cx="9.579" cy="7.319" rx="9.579" ry="7.319" transform="translate(22.791 155.87) rotate(-81.82)"/><ellipse class="b" cx="9.579" cy="7.319" rx="9.579" ry="7.319" transform="translate(24.459 144.28) rotate(-81.82)"/><path class="c" d="M705.52,147.924a34.654,34.654,0,0,0,3.267-3.593l-18.581-5.837,20.56,3.109a35.123,35.123,0,0,0,4.613-27.4l-29.673,10.348,28.158-15.063a35.054,35.054,0,1,0-62.883,30.6,35.121,35.121,0,0,0-4.856,5.757l22.86,16.384L643.914,149.6a35.073,35.073,0,0,0,.9,33.387,35.051,35.051,0,1,0,54.539,7.838A35.057,35.057,0,0,0,705.52,147.924Z" transform="translate(-633.95 -87.501)"/><path class="d" d="M640.473,350.582a34.911,34.911,0,0,0,4.342,22.52,35.051,35.051,0,1,0,54.539,7.838C704.854,375.7,641.034,346.688,640.473,350.582Z" transform="translate(-633.95 -277.611)"/></g><ellipse class="e" cx="149.5" cy="9" rx="149.5" ry="9" transform="translate(0.106 182.514)"/><ellipse class="c" cx="6.993" cy="1.346" rx="6.993" ry="1.346" transform="translate(240.32 185.667)"/><ellipse class="b" cx="0.815" cy="1.067" rx="0.815" ry="1.067" transform="translate(246.381 185.377)"/><ellipse class="b" cx="0.815" cy="1.067" rx="0.815" ry="1.067" transform="translate(246.381 184.072)"/><ellipse class="b" cx="0.815" cy="1.067" rx="0.815" ry="1.067" transform="translate(246.381 182.77)"/><ellipse class="b" cx="0.815" cy="1.067" rx="0.815" ry="1.067" transform="translate(246.381 181.469)"/><ellipse class="b" cx="0.815" cy="1.067" rx="0.815" ry="1.067" transform="translate(246.381 180.164)"/><ellipse class="b" cx="0.815" cy="1.067" rx="0.815" ry="1.067" transform="translate(246.381 178.862)"/><ellipse class="b" cx="0.815" cy="1.067" rx="0.815" ry="1.067" transform="translate(246.381 177.561)"/><path class="c" d="M946.036,684.981a3.75,3.75,0,0,0,.3-.448l-2.139-.351,2.313.017a3.913,3.913,0,0,0,.075-3.09l-3.1,1.611,2.863-2.106a3.9,3.9,0,1,0-6.443,4.367,3.985,3.985,0,0,0-.445.71l2.764,1.443-2.96-1a47.988,47.988,0,0,1,1.06,8.941,7.9,7.9,0,0,0,5.711-10.1Z" transform="translate(-695.793 -515.267)"/><path class="d" d="M939.085,710.12a15.61,15.61,0,0,1,1.248,7.686,3.9,3.9,0,0,0,5.711-5.276C946.573,711.867,939.085,709.683,939.085,710.12Z" transform="translate(-695.808 -537.996)"/><ellipse class="c" cx="9.342" cy="1.796" rx="9.342" ry="1.796" transform="translate(77.392 195.592)"/><ellipse class="b" cx="1.089" cy="1.423" rx="1.089" ry="1.423" transform="translate(85.487 195.202)"/><ellipse class="b" cx="1.089" cy="1.423" rx="1.089" ry="1.423" transform="translate(85.487 193.461)"/><ellipse class="b" cx="1.089" cy="1.423" rx="1.089" ry="1.423" transform="translate(85.487 191.72)"/><ellipse class="b" cx="1.089" cy="1.423" rx="1.089" ry="1.423" transform="translate(85.487 189.981)"/><ellipse class="b" cx="1.089" cy="1.423" rx="1.089" ry="1.423" transform="translate(85.487 188.24)"/><ellipse class="b" cx="1.089" cy="1.423" rx="1.089" ry="1.423" transform="translate(85.487 186.499)"/><ellipse class="b" cx="1.089" cy="1.423" rx="1.089" ry="1.423" transform="translate(85.487 184.76)"/><path class="c" d="M362.477,696.055a5.507,5.507,0,0,0,.4-.6l-2.855-.47,3.09.025a5.207,5.207,0,0,0,.1-4.129l-4.146,2.15,3.822-2.8a5.21,5.21,0,1,0-8.607,5.832,5.33,5.33,0,0,0-.594.951l3.712,1.935-3.958-1.327a68.084,68.084,0,0,1,1.391,11.939,10.548,10.548,0,0,0,7.631-13.489Z" transform="translate(-271.827 -521.781)"/><path class="d" d="M353.178,729.5a20.946,20.946,0,0,1,1.667,10.269,5.21,5.21,0,0,0,7.631-7.047C363.18,731.836,353.178,728.917,353.178,729.5Z" transform="translate(-271.834 -552.006)"/><path class="f" d="M395.3,324.392a73.092,73.092,0,0,1-1.622-11.133c-.077-2.211.077-4.461-.207-6.666-.141-1.083-.387-2.148-.63-3.212l-.978-4.259a7.112,7.112,0,0,0-.094-2.452,8.569,8.569,0,0,0-.39-1.247,19.348,19.348,0,0,0,2.241-4.146,4.136,4.136,0,0,0,.381-2.07c-.2-1.346-1.5-2.233-2.717-2.9a5.965,5.965,0,0,0-2.349-.851,3.817,3.817,0,0,0-3.1,1.382,6.725,6.725,0,0,1,.2-3.27c-.721-.323-1.448-.627-2.181-.923a20.018,20.018,0,0,1-.111-2.877c.017-1.153.036-2.316.1-3.471a10.254,10.254,0,0,0,6.738-9.571v-.351A8.314,8.314,0,0,0,391.3,260a11.231,11.231,0,0,0-5.478-6.448,18.861,18.861,0,0,0-8.435-2.106,12.136,12.136,0,0,0-2.935.185,14.162,14.162,0,0,0-2.99,1.106,12.609,12.609,0,0,0-4.03,2.576c-1.9,2.026-2.324,5-2.117,7.739a34.4,34.4,0,0,0,2.863,10.414,12.79,12.79,0,0,0,1.714,3.17,1.816,1.816,0,0,0,2.424.263,26.539,26.539,0,0,0-.061,2.653,6.7,6.7,0,0,0-4.168,1.039,1.869,1.869,0,0,0-.956,1.686,1.567,1.567,0,0,1,1.509,1.341,2.9,2.9,0,0,1-.522,1.658c-.124.227-.249.456-.376.683-1.188,1.271-2.407,2.863-2.515,4.441a5.543,5.543,0,0,0-.578.086c-1.078.2-2.15.567-3.209.843l-7.661,2.018-1.893.525-3.04.8a21.509,21.509,0,0,0-5.622,2.054,7.044,7.044,0,0,0-3.518,4.563c-.171.962-.066,1.962-.276,2.916a.5.5,0,0,1-.028.127,9.328,9.328,0,0,1-.7,1.744,24.07,24.07,0,0,0-2.709,11.545,33.646,33.646,0,0,0,1.5,7.186q1.053,3.612,2.078,7.225a37.937,37.937,0,0,0,1.711,5.058,19.485,19.485,0,0,0,5.121,6.846,9.045,9.045,0,0,0,2.045,1.382,7.438,7.438,0,0,0,3.593.583c.332-.022.658-.058.981-.111a17.886,17.886,0,0,0,6.619-2.808q1.274-.807,2.487-1.7a15.778,15.778,0,0,0,.553,2.742,4.912,4.912,0,0,1,.329,1.888,10.145,10.145,0,0,1-1.081,2.454c-.71,1.763.019,3.728.138,5.619a20.615,20.615,0,0,1-.663,5.273,55.061,55.061,0,0,0-1.02,8.822,26.689,26.689,0,0,1-.221,3.355c-.257,1.57-.86,3.084-.965,4.671-.16,2.471.906,4.889.81,7.363-.113,2.9-1.819,5.727-1.224,8.568.075.357.276.768.6.859l-.16.146c-.489.453-.965,1.291-.409,1.658a1.085,1.085,0,0,0,.417.144c.86.18,1.725.343,2.59.495a8.014,8.014,0,0,0,.3,2.366c.158.113.318.216.478.312a.638.638,0,0,0,.174.829,1.087,1.087,0,0,0,.417.144,90.233,90.233,0,0,0,21.655,1.8,7.84,7.84,0,0,0,3.764-.807,2.716,2.716,0,0,0,1.329-3.239c-.467-1.028-1.689-1.473-2.786-1.816l-1.288-.4a2.211,2.211,0,0,0,.116-1.935c-.467-1.028-1.689-1.473-2.786-1.816l-2.966-.92a2.91,2.91,0,0,1-1.078-.506,5.857,5.857,0,0,1-.586-.68,3.317,3.317,0,0,0-1.617-1.014,12.576,12.576,0,0,1,.041-1.885l.829-10.008a21.671,21.671,0,0,0-.16-6.791,6.083,6.083,0,0,1-.346-2.72c.323-1.47,1.871-2.288,2.927-3.38,1.592-1.658,2.087-4.016,2.452-6.26a126.382,126.382,0,0,0,1.415-28.028,44.772,44.772,0,0,1,10.176-1.636,1.05,1.05,0,0,0,1.056-.849A3.412,3.412,0,0,0,395.3,324.392Zm-16.542.489c.019-.1.041-.194.058-.29l.229.293Z" transform="translate(-259.381 -206.118)"/><path class="g" d="M466.578,322.978c-.072.962-.412,1.885-.536,2.844-.141,1.056-.017,2.131-.086,3.195a4.062,4.062,0,0,1-1.186,2.877,55.869,55.869,0,0,1,13.8,2.985c-1.346-1.658-1.382-3.974-1.349-6.1a29.672,29.672,0,0,1,1.128-9.328,22.7,22.7,0,0,0-9.325-.122c-.669.133-2.695.05-3,.674C465.806,320.46,466.627,322.281,466.578,322.978Z" transform="translate(-352.59 -254.946)"/><path class="d" d="M466.578,322.978c-.072.962-.412,1.885-.536,2.844-.141,1.056-.017,2.131-.086,3.195a4.062,4.062,0,0,1-1.186,2.877,55.869,55.869,0,0,1,13.8,2.985c-1.346-1.658-1.382-3.974-1.349-6.1a29.672,29.672,0,0,1,1.128-9.328,22.7,22.7,0,0,0-9.325-.122c-.669.133-2.695.05-3,.674C465.806,320.46,466.627,322.281,466.578,322.978Z" transform="translate(-352.59 -254.946)"/><path class="h" d="M440.215,744.758a5.737,5.737,0,0,0,.553.694,2.781,2.781,0,0,0,1.053.506l2.9.92c1.075.343,2.269.785,2.725,1.813a2.739,2.739,0,0,1-1.3,3.234,7.549,7.549,0,0,1-3.679.807,86.54,86.54,0,0,1-21.168-1.794,1.1,1.1,0,0,1-.406-.144c-.553-.373-.08-1.208.4-1.658,1.866-1.769,3.894-3.623,6.434-4.032,1.335-.218,2.675-.13,4-.448.954-.229,1.855-.625,2.805-.86C436.3,743.362,438.95,743.207,440.215,744.758Z" transform="translate(-320.656 -562.192)"/><path class="d" d="M440.215,744.758a5.737,5.737,0,0,0,.553.694,2.781,2.781,0,0,0,1.053.506l2.9.92c1.075.343,2.269.785,2.725,1.813a2.739,2.739,0,0,1-1.3,3.234,7.549,7.549,0,0,1-3.679.807,86.54,86.54,0,0,1-21.168-1.794,1.1,1.1,0,0,1-.406-.144c-.553-.373-.08-1.208.4-1.658,1.866-1.769,3.894-3.623,6.434-4.032,1.335-.218,2.675-.13,4-.448.954-.229,1.855-.625,2.805-.86C436.3,743.362,438.95,743.207,440.215,744.758Z" transform="translate(-320.656 -562.192)"/><path class="i" d="M425.951,516.092a17.567,17.567,0,0,0-.249,11.749c-.965-.1-1.382,1.2-1.357,2.172a16.094,16.094,0,0,0,.611,4,5.018,5.018,0,0,1,.323,1.885,10.217,10.217,0,0,1-1.059,2.452c-.691,1.761.019,3.723.138,5.611a20.918,20.918,0,0,1-.652,5.268,56.179,56.179,0,0,0-.995,8.808,26.562,26.562,0,0,1-.218,3.352c-.249,1.57-.829,3.082-.94,4.665-.158,2.465.884,4.884.79,7.354-.111,2.9-1.78,5.718-1.2,8.568.083.4.307.873.719.879,4.168.053,8.062-1.105,12.186-.5.42-9.541.829-19.126,2.709-28.492,1.658-8.338,4.469-16.583,4.207-25.085-.152-4.862-1.307-9.629-2.009-14.444A19,19,0,0,0,425.951,516.092Z" transform="translate(-320.934 -396.039)"/><path class="d" d="M425.951,516.092a17.567,17.567,0,0,0-.249,11.749c-.965-.1-1.382,1.2-1.357,2.172a16.094,16.094,0,0,0,.611,4,5.018,5.018,0,0,1,.323,1.885,10.217,10.217,0,0,1-1.059,2.452c-.691,1.761.019,3.723.138,5.611a20.918,20.918,0,0,1-.652,5.268,56.179,56.179,0,0,0-.995,8.808,26.562,26.562,0,0,1-.218,3.352c-.249,1.57-.829,3.082-.94,4.665-.158,2.465.884,4.884.79,7.354-.111,2.9-1.78,5.718-1.2,8.568.083.4.307.873.719.879,4.168.053,8.062-1.105,12.186-.5.42-9.541.829-19.126,2.709-28.492,1.658-8.338,4.469-16.583,4.207-25.085-.152-4.862-1.307-9.629-2.009-14.444A19,19,0,0,0,425.951,516.092Z" transform="translate(-320.934 -396.039)"/><path class="h" d="M454.215,759.758a5.74,5.74,0,0,0,.553.694,2.78,2.78,0,0,0,1.053.506l2.9.92c1.075.343,2.269.785,2.725,1.813a2.739,2.739,0,0,1-1.3,3.234,7.551,7.551,0,0,1-3.679.807,86.535,86.535,0,0,1-21.168-1.794,1.1,1.1,0,0,1-.406-.144c-.553-.373-.08-1.208.4-1.658,1.866-1.769,3.894-3.623,6.434-4.032,1.335-.218,2.675-.13,4-.448.954-.229,1.855-.625,2.805-.86C450.3,758.362,452.95,758.207,454.215,759.758Z" transform="translate(-330.786 -573.046)"/><path class="i" d="M435.533,517.9a7.093,7.093,0,0,0-1.238,4.936,20.643,20.643,0,0,0,1.3,5.03c-.76.7-.6,1.9-.5,2.932.362,3.82-.965,7.631-.771,11.462.08,1.611.431,3.2.514,4.812a30.914,30.914,0,0,1-.343,5.271,314.438,314.438,0,0,0-2.211,33.744,10.906,10.906,0,0,0,.276,3.09,8.392,8.392,0,0,0,6.965,1.125,26.338,26.338,0,0,0,6.832-3,21.1,21.1,0,0,0,3.383-2.183,1.8,1.8,0,0,0,.68-.934c.232-1.106-1.3-1.606-2.186-2.322-1.282-1.042-1.263-2.971-1.13-4.618l.8-9.994a22.127,22.127,0,0,0-.155-6.783,6.3,6.3,0,0,1-.34-2.717c.315-1.465,1.83-2.283,2.861-3.375,1.559-1.658,2.04-4.01,2.4-6.249A129.165,129.165,0,0,0,453.738,516c-2.031.7-4.439.321-6.581.486s-4.27.882-6.44.94C438.91,517.468,436.644,516.47,435.533,517.9Z" transform="translate(-329.079 -397.569)"/><circle class="g" cx="10" cy="10" r="10" transform="translate(111.106 50.514)"/><path class="h" d="M453.023,357.809a55.041,55.041,0,0,0-10.2-3.521c-2.471-.589-5.293-.942-7.357.536a1.853,1.853,0,0,0-.934,1.686A1.537,1.537,0,0,1,436,357.848a2.934,2.934,0,0,1-.509,1.658l-2.385,4.422a12.642,12.642,0,0,0-1.863,6.876l-.276,4.013a48.046,48.046,0,0,0-.116,7.592,24.791,24.791,0,0,1,.3,5.71c-.218,1.523-.862,2.952-1.224,4.45-.68,2.819-.37,5.909-1.689,8.5a2.559,2.559,0,0,1,1.711-.155c4,.738,7.15,3.9,11.036,5.1.981-1.432,2.311-2.487,3.408-3.82a7.385,7.385,0,0,0,1.567-3.466,13.038,13.038,0,0,1,2.029,3.25,2.183,2.183,0,0,0,.442.81c.522.509,1.382.312,2.081.1a42.9,42.9,0,0,1,10.55-1.788,1.033,1.033,0,0,0,1.034-.848,3.42,3.42,0,0,0-.028-1.7,74.651,74.651,0,0,1-1.584-11.119c-.077-2.211.075-4.453-.2-6.658-.138-1.081-.379-2.145-.616-3.206l-1.973-8.77c-.111-.489-.636-.81-.86-1.26-.907-1.835-2.639-3.162-3.535-5A6.558,6.558,0,0,1,453.023,357.809Z" transform="translate(-326.156 -280.184)"/><path class="b" d="M450.376,271.6a.677.677,0,0,1,.1-.409.923.923,0,0,1,.4-.246,2.1,2.1,0,0,0,1.169-2.241l.967-.2.03-3.369c1.437-.8,3.4-.193,4.748-1.13a6.427,6.427,0,0,0,1.614-2.233,2.92,2.92,0,0,1,2.078-1.675,5.92,5.92,0,0,0,.318,5.011,5.707,5.707,0,0,0,2.33-2.178l.481,2.764a.685.685,0,0,0,.2.451c.251.185.591-.047.813-.276l1.252-1.23a17.234,17.234,0,0,1,1.075,4.115,8.124,8.124,0,0,0,1.9-7.954,11.181,11.181,0,0,0-5.354-6.44,18.1,18.1,0,0,0-8.245-2.1,11.725,11.725,0,0,0-2.869.185,13.621,13.621,0,0,0-2.924,1.106,12.249,12.249,0,0,0-3.938,2.57c-1.857,2.023-2.275,5-2.07,7.739a35.055,35.055,0,0,0,2.8,10.4,12.828,12.828,0,0,0,1.675,3.167c1.119,1.418,3.869.24,3.518-2.562C452.206,272.862,450.376,273.633,450.376,271.6Z" transform="translate(-337.856 -206.706)"/><path class="c" d="M379.318,428.239a43.365,43.365,0,0,1-15.326,17.3,17.3,17.3,0,0,1-6.47,2.805c-.318.052-.636.088-.959.111a7.158,7.158,0,0,1-3.5-.594,8.842,8.842,0,0,1-2-1.382,19.432,19.432,0,0,1-5.005-6.835,38.484,38.484,0,0,1-1.672-5.052q-1.017-3.61-2.029-7.222a33.885,33.885,0,0,1-1.465-7.186,24.463,24.463,0,0,1,2.648-11.528,9.508,9.508,0,0,0,.688-1.741.75.75,0,0,1,.028-.127c.2-.954.1-1.951.276-2.913a7.014,7.014,0,0,1,3.438-4.558,20.625,20.625,0,0,1,5.5-2.051l2.966-.8,1.841-.495,7.487-2.015c1.036-.276,2.084-.644,3.137-.829,1.175-.221,1.166-.1,1.258,1.045a47.581,47.581,0,0,0,.553,6.2c.417,1.971,1.152,3.869,1.705,5.8,1.4,4.884,1.628,10.024,2.728,14.986a5.077,5.077,0,0,0,1.509,3.04c1.042.829,2.8,1.034,3.073,2.333A2.98,2.98,0,0,1,379.318,428.239Z" transform="translate(-262.928 -308.592)"/><path class="d" d="M357.522,484.336c-.318.053-.636.088-.959.111a7.158,7.158,0,0,1-3.5-.583,8.843,8.843,0,0,1-2-1.382,19.433,19.433,0,0,1-5.005-6.835,38.483,38.483,0,0,1-1.672-5.052q-1.017-3.61-2.029-7.222a33.885,33.885,0,0,1-1.465-7.186,24.464,24.464,0,0,1,2.648-11.528,9.508,9.508,0,0,0,.688-1.741.751.751,0,0,1,.028-.127c4.511.793,9.922,9.422,12.714,20.729C359.023,471.973,359.111,479.759,357.522,484.336Z" transform="translate(-262.928 -344.593)"/><path class="d" d="M406.363,426.293l-.754.13c-.777-2.04-1.551-4.082-2.46-6.067-.473-1.036-.984-2.059-1.382-3.129-1.492-4.107-1.238-8.98-4-12.363a4.23,4.23,0,0,0-.672-.68l1.841-.495a24.962,24.962,0,0,1,3.355,8.322,33.213,33.213,0,0,0,.954,4.306,29.777,29.777,0,0,0,1.418,3.079A14.15,14.15,0,0,1,406.363,426.293Z" transform="translate(-303.615 -316.3)"/><path class="c" d="M447.824,366.743a9.14,9.14,0,0,1,7.272-2.211,13.913,13.913,0,0,1,4.278,1.658,22.992,22.992,0,0,1,7.158,5.329,21.361,21.361,0,0,1,2.825,4.754,11.525,11.525,0,0,1,.829,2.324c.674,3.123-.981,6.227-2.576,9l-3.068,5.323a45.994,45.994,0,0,1-4.665,7.056c-.846.989-1.774,1.9-2.7,2.819l-4.066,4.013a.457.457,0,0,1-.755-.006l-1.343-1.07a22.848,22.848,0,0,0,3.433-2.91,46.136,46.136,0,0,0,4.641-5.995l4.472-6.484c1.307-1.9,2.673-3.988,2.526-6.288a9.669,9.669,0,0,0-.918-3.159q-1.152-2.706-2.5-5.326a27.062,27.062,0,0,0-3.574-5.55,11.627,11.627,0,0,0-5.417-3.64,4.511,4.511,0,0,0-1.962-.188c-1.454.24-2.487,1.49-3.408,2.651l-2.8,3.593c-.638.815-1.224,1.761-1.263.213C444.17,370.438,446.4,368.164,447.824,366.743Z" transform="translate(-337.73 -287.89)"/><path class="g" d="M454.917,398.658c.553,2.128,1.368,4.544,3.416,5.351a4.693,4.693,0,0,0,4.406-.829,12.361,12.361,0,0,0,2.963-3.593,34.905,34.905,0,0,1,2.286-3.466c1.639-2.056,3.869-3.687,4.975-6.08.326-.713.553-1.476.923-2.161a13.5,13.5,0,0,1,1.338-1.788,19.384,19.384,0,0,0,3.015-5.235,4.21,4.21,0,0,0,.373-2.067c-.2-1.346-1.47-2.23-2.656-2.891a5.726,5.726,0,0,0-2.3-.851,3.717,3.717,0,0,0-3.118,1.5,6,6,0,0,0-1.139,3.364c-.083,1.473.2,3-.276,4.4a6.91,6.91,0,0,1-1.042,1.8,21.129,21.129,0,0,1-5.669,5.232,9.836,9.836,0,0,0-.672-3.048c-.21-.536-4.328,0-4.864.088-1.061.155-3.118.276-3.786,1.288s.16,2.711.431,3.731Z" transform="translate(-343.956 -295.566)"/><path class="h" d="M450.235,373.037a14.553,14.553,0,0,0-1.7,1.658,9.492,9.492,0,0,0-1.982,5.318,22.85,22.85,0,0,0,.437,5.732q.448,2.548,1.059,5.061a3.491,3.491,0,0,1,2.322-2.764,7.419,7.419,0,0,1,3.751-.221,18.334,18.334,0,0,1,4.715,1.363l.583-8.173a14.244,14.244,0,0,0-.019-3.317,7.31,7.31,0,0,0-3.411-4.961C453.77,371.384,452.225,371.3,450.235,373.037Z" transform="translate(-339.373 -293.17)"/><path class="j" d="M655.588,323.6a19.3,19.3,0,0,0-1.907-6.371,22.914,22.914,0,0,1-1.738-3.681c-.312-1.059-.373-2.172-.622-3.247s-.688-2.1-1.042-3.154c-2.5-7.462-.622-15.627-1.429-23.448-.3-2.885-1.186-6.05-3.687-7.554a10.463,10.463,0,0,0-5.022-1.106l-.8-.036-1.282-.064a21.234,21.234,0,0,0-5.528.229c-2.211.484-4.831,2.04-5.528,4.3-.381-.2-.766-.37-1.119-.533a20.077,20.077,0,0,0-4.447-1.382,16.621,16.621,0,0,0,3.775-1.459c2.764-1.609,3.405-6.307,3.969-9.45a20.243,20.243,0,0,0-.887-9.444,16.241,16.241,0,0,0-1.258-3.129,10.914,10.914,0,0,0-15.522-3.842,33.118,33.118,0,0,0-6.943,6.52c-.276.326-1.432,1.481-1.047,1.968.216.276.926.055,1.672-.276a10.139,10.139,0,0,0-.868,4.118,10.259,10.259,0,0,0,5.038,8.822l.276,2.543v.019c.03.849.044,1.7.055,2.543,0,.594,0,1.2-.017,1.81a12.481,12.481,0,0,1-4.124,3.068,6.607,6.607,0,0,0,3.742-.608,5.334,5.334,0,0,1-.967,1.863c.332-.116.663-.221,1-.332a7.221,7.221,0,0,0-.462.868,6.715,6.715,0,0,0-.445,1.476,20.725,20.725,0,0,0-1.821,3.256h0c-.232.517-.439,1.042-.627,1.575v.036q-.276.8-.489,1.614h0q-.1.392-.182.788v.058q-.166.8-.276,1.611v.111c-.03.251-.058.506-.077.76v.039c-.022.276-.039.539-.047.81v.954c0,.52.033,1.042.083,1.564A.658.658,0,0,0,605,298c.022.213.047.426.077.641a.375.375,0,0,0,.019.147c.036.257.077.511.124.766a.913.913,0,0,0,.036.169c.039.2.08.406.127.611l.05.21c.061.254.124.506.2.76.042.144.083.276.127.428a10.761,10.761,0,0,1,.276,1.595l-1.512.05q-4.853.138-9.7.439a3.807,3.807,0,0,0-3.513-2.667,6.927,6.927,0,0,0-.829-.05h0a4.6,4.6,0,0,0,.79-.86,3.809,3.809,0,0,0,.63-1.382,3.785,3.785,0,0,0-1.144,1c-.1.138-.193.276-.276.4v-.829a.13.13,0,0,0-.133-.133h-.276a.13.13,0,0,0-.133.133v1.689h-.149c-.182.017-.359.039-.533.072A3.582,3.582,0,0,0,586,304.784a4.422,4.422,0,0,0,1.559,3.366,9.694,9.694,0,0,0,.428,1.863,2.487,2.487,0,0,0,1,1.55,2.28,2.28,0,0,0,1.089.2c3.073,0,5.981-1.418,9.041-1.658,1.89-.152,3.789.141,5.685.083.276,0,.553-.028.829-.05-2.592,12.838-5.729,25.839-4.09,38.807a3.737,3.737,0,0,0,.92,2.382c.854.779,2.17.652,3.317.553a27.722,27.722,0,0,1,9.383.749,2.85,2.85,0,0,0,1.321.047,2.453,2.453,0,0,0,.276-.08l.077-.03c.058-.022.113-.044.166-.069l.08-.041.135-.083c.022-.017.047-.03.066-.047a1.076,1.076,0,0,0,.135-.111l.039-.033a1.974,1.974,0,0,0,.147-.16l.033-.05a1.352,1.352,0,0,0,.088-.13c.014-.022.028-.044.039-.066s.044-.083.064-.124a.526.526,0,0,0,.03-.075c.008-.025.036-.091.053-.138s0-.044.022-.069a.792.792,0,0,0,.052-.207v-.044a1.317,1.317,0,0,1,.03-.177.318.318,0,0,0,0-.091v-.7h0a7.072,7.072,0,0,0-.053-.732,4.368,4.368,0,0,0,.6.13h0a3.369,3.369,0,0,0,.575.041h.028a1.181,1.181,0,0,0,.276-.022h0a2.25,2.25,0,0,0,.238-.05h.036a1.281,1.281,0,0,0,.21-.083l.033-.019a1.117,1.117,0,0,0,.163-.111l.025-.019a.96.96,0,0,0,.138-.16l.025-.041a.938.938,0,0,0,.1-.213c.158-.533-.2-1.136.373-1.625a21.907,21.907,0,0,1,1.2,5.378,3.507,3.507,0,0,0,.392,1.935,8.1,8.1,0,0,0,.829.846,4.768,4.768,0,0,1,.807,3.532c-.025.5-.052,1-.088,1.5a74.212,74.212,0,0,1-4.035,19.571,10.545,10.545,0,0,1-.846,1.935,9.367,9.367,0,0,1-2.076,2.283,26.336,26.336,0,0,1-3.69,2.623,11.286,11.286,0,0,0-1.877,1.247c-.022-.064-.047-.124-.064-.191-.03-.127-.072-.276-.2-.323a.376.376,0,0,0-.276.044c-1.3.569-2.593,1.139-3.839,1.8a4.48,4.48,0,0,0-1.62,1.252,1.7,1.7,0,0,0-.105,1.935,2.47,2.47,0,0,0,1.611.752c.768.135,1.539.232,2.311.3a3.49,3.49,0,0,0-1.02.907,1.7,1.7,0,0,0-.105,1.935,2.47,2.47,0,0,0,1.611.752c4.9.865,9.925.276,14.9.13a16.352,16.352,0,0,0,4.8-.589,2.418,2.418,0,0,0,.829-.434,2.888,2.888,0,0,0,.506-2.606l-.506-3.737a.982.982,0,0,0-.218.041,55.23,55.23,0,0,1,2.269-10.337c1.686-5.237,4.2-10.4,4.162-15.878v-.4c-.047-1.716-.354-3.413-.553-5.121a74.612,74.612,0,0,1-.257-8.612,18.516,18.516,0,0,1,.235-3.364.555.555,0,0,1,.025-.113l4.591-.122a3.238,3.238,0,0,0,1.482-.276.973.973,0,0,0,.536-1.186,3.91,3.91,0,0,0,5.152-2.377,4.171,4.171,0,0,0,.1-.439.131.131,0,0,1,0-.033c.019-.138.033-.276.039-.412v-.069h0a7.707,7.707,0,0,0-.434-2.791A46.927,46.927,0,0,0,643.521,331c-.724-1.269-1.426-2.554-2.109-3.845l.6.771a2.611,2.611,0,0,0,.81.777c1.119.578,2.291-.586,3.43-1.122,1.512-.713,3.281-.293,4.95-.174s3.681-.312,4.278-1.86a4.079,4.079,0,0,0,.108-1.951Zm-28.78-41.538c0,.591.039,1.191.086,1.794a16.759,16.759,0,0,0-1.935-2.57Z" transform="translate(-440.314 -203.962)"/><path class="k" d="M601.282,433.648a.773.773,0,1,1,.508.384c-.481.655-.987,1.106-1.128,1S600.8,434.3,601.282,433.648Z" transform="translate(-450.897 -337.256)"/><path class="d" d="M601.95,434.494a2.789,2.789,0,0,1,.829-.743,2.834,2.834,0,0,1-.461,1.023c-.359.486-.735.829-.829.744S601.591,434.98,601.95,434.494Z" transform="translate(-451.505 -338.052)"/><path class="l" d="M541.266,346.77h.276a.133.133,0,0,1,.133.133v3.131h-.525V346.9A.133.133,0,0,1,541.266,346.77Z" transform="translate(-391.553 -250.928)"/><path class="m" d="M594.844,444.434a4.422,4.422,0,0,1-8.844,0,3.556,3.556,0,0,1,3.223-3.576,6.5,6.5,0,0,1,1.2-.108,6.759,6.759,0,0,1,.829.05C593.3,441.054,594.844,442.276,594.844,444.434Z" transform="translate(-440.314 -343.117)"/><path class="d" d="M599.689,440.827c-.08.152-.514.276-1.039.276a1.833,1.833,0,0,1-.989-.207,6.5,6.5,0,0,1,1.2-.108A6.779,6.779,0,0,1,599.689,440.827Z" transform="translate(-448.751 -343.144)"/><path class="d" d="M591.16,448.816a4.422,4.422,0,0,1-4.422-4.422,3.53,3.53,0,0,1,3.12-3.554,5.957,5.957,0,0,0-.636.083A3.556,3.556,0,0,0,586,444.5a4.422,4.422,0,0,0,4.422,4.422,4.333,4.333,0,0,0,.992-.113C591.329,448.814,591.251,448.816,591.16,448.816Z" transform="translate(-440.314 -343.182)"/><path class="n" d="M673.889,625.929a3.152,3.152,0,0,0,2.374.478l3.778-.276c3-.221,6.105-.47,8.753-1.9a2.082,2.082,0,0,0,.727-.553,2.341,2.341,0,0,0,.318-1.191,55.17,55.17,0,0,1,2.427-12.047c1.658-5.21,4.146-10.345,4.113-15.8v-.4c-.047-1.708-.348-3.4-.533-5.1a74.46,74.46,0,0,1-.254-8.568,18.584,18.584,0,0,1,.232-3.347c.174-.9.829-1.8.428-2.59-.777-1.534-3.593-2.1-5.108-2.153a20.575,20.575,0,0,0-6.017.992,3.87,3.87,0,0,0-1.68.76,3.2,3.2,0,0,0-.8,2.294c-.1,3.69,2.02,7.122,2.189,10.807a3.563,3.563,0,0,0,.387,1.935,8,8,0,0,0,.829.843,4.79,4.79,0,0,1,.8,3.513q-.037.746-.086,1.493a74.306,74.306,0,0,1-3.988,19.471,10.617,10.617,0,0,1-.829,1.935,9.375,9.375,0,0,1-2.051,2.272,26.212,26.212,0,0,1-3.646,2.609,7.417,7.417,0,0,0-2.366,1.8A2.1,2.1,0,0,0,673.889,625.929Z" transform="translate(-503.549 -438.444)"/><path class="d" d="M673.889,625.929a3.152,3.152,0,0,0,2.374.478l3.778-.276c3-.221,6.105-.47,8.753-1.9a2.082,2.082,0,0,0,.727-.553,2.341,2.341,0,0,0,.318-1.191,55.17,55.17,0,0,1,2.427-12.047c1.658-5.21,4.146-10.345,4.113-15.8v-.4c-.047-1.708-.348-3.4-.533-5.1a74.46,74.46,0,0,1-.254-8.568,18.584,18.584,0,0,1,.232-3.347c.174-.9.829-1.8.428-2.59-.777-1.534-3.593-2.1-5.108-2.153a20.575,20.575,0,0,0-6.017.992,3.87,3.87,0,0,0-1.68.76,3.2,3.2,0,0,0-.8,2.294c-.1,3.69,2.02,7.122,2.189,10.807a3.563,3.563,0,0,0,.387,1.935,8,8,0,0,0,.829.843,4.79,4.79,0,0,1,.8,3.513q-.037.746-.086,1.493a74.306,74.306,0,0,1-3.988,19.471,10.617,10.617,0,0,1-.829,1.935,9.375,9.375,0,0,1-2.051,2.272,26.212,26.212,0,0,1-3.646,2.609,7.417,7.417,0,0,0-2.366,1.8A2.1,2.1,0,0,0,673.889,625.929Z" transform="translate(-503.549 -438.444)"/><path class="o" d="M673.889,683.937a3.152,3.152,0,0,0,2.374.478l3.778-.276c3-.221,6.105-.47,8.753-1.9a2.082,2.082,0,0,0,.727-.553,2.34,2.34,0,0,0,.318-1.191,55.171,55.171,0,0,1,2.427-12.048c1.658-5.21,4.146-10.345,4.113-15.8a79.317,79.317,0,0,1-9.621.475,74.306,74.306,0,0,1-3.988,19.471,10.619,10.619,0,0,1-.829,1.935,9.377,9.377,0,0,1-2.051,2.272,26.2,26.2,0,0,1-3.646,2.609,7.416,7.416,0,0,0-2.366,1.8A2.119,2.119,0,0,0,673.889,683.937Z" transform="translate(-503.549 -496.451)"/><path class="d" d="M673.889,683.937a3.152,3.152,0,0,0,2.374.478l3.778-.276c3-.221,6.105-.47,8.753-1.9a2.082,2.082,0,0,0,.727-.553,2.34,2.34,0,0,0,.318-1.191,55.171,55.171,0,0,1,2.427-12.048c1.658-5.21,4.146-10.345,4.113-15.8a79.317,79.317,0,0,1-9.621.475,74.306,74.306,0,0,1-3.988,19.471,10.619,10.619,0,0,1-.829,1.935,9.377,9.377,0,0,1-2.051,2.272,26.2,26.2,0,0,1-3.646,2.609,7.416,7.416,0,0,0-2.366,1.8A2.119,2.119,0,0,0,673.889,683.937Z" transform="translate(-503.549 -496.451)"/><path class="i" d="M668.4,750.913a14.237,14.237,0,0,0,2.6-1.244l4.165-2.349a3.53,3.53,0,0,1,1.235-.5l.5,3.717a2.879,2.879,0,0,1-.5,2.6,2.42,2.42,0,0,1-.829.431,15.947,15.947,0,0,1-4.743.583c-4.914.157-9.878.732-14.72-.13a2.469,2.469,0,0,1-1.589-.746,1.687,1.687,0,0,1,.1-1.915,4.444,4.444,0,0,1,1.6-1.247c1.233-.663,2.512-1.227,3.792-1.794a.37.37,0,0,1,.263-.044c.124.042.163.194.2.321a3.334,3.334,0,0,0,1.785,2.051C662.275,750.642,666.562,751.5,668.4,750.913Z" transform="translate(-489.716 -564.594)"/><path class="d" d="M668.4,750.913a14.237,14.237,0,0,0,2.6-1.244l4.165-2.349a3.53,3.53,0,0,1,1.235-.5l.5,3.717a2.879,2.879,0,0,1-.5,2.6,2.42,2.42,0,0,1-.829.431,15.947,15.947,0,0,1-4.743.583c-4.914.157-9.878.732-14.72-.13a2.469,2.469,0,0,1-1.589-.746,1.687,1.687,0,0,1,.1-1.915,4.444,4.444,0,0,1,1.6-1.247c1.233-.663,2.512-1.227,3.792-1.794a.37.37,0,0,1,.263-.044c.124.042.163.194.2.321a3.334,3.334,0,0,0,1.785,2.051C662.275,750.642,666.562,751.5,668.4,750.913Z" transform="translate(-489.716 -564.594)"/><path class="n" d="M683.889,639.929a3.152,3.152,0,0,0,2.374.478l3.778-.276c3-.221,6.105-.47,8.753-1.9a2.082,2.082,0,0,0,.727-.553,2.34,2.34,0,0,0,.318-1.191,55.169,55.169,0,0,1,2.427-12.048c1.658-5.21,4.146-10.345,4.113-15.8v-.4c-.047-1.708-.348-3.4-.533-5.1a74.461,74.461,0,0,1-.254-8.568,18.6,18.6,0,0,1,.232-3.347c.174-.9.829-1.8.428-2.59-.777-1.534-3.593-2.1-5.108-2.153a20.574,20.574,0,0,0-6.017.992,3.872,3.872,0,0,0-1.68.76,3.2,3.2,0,0,0-.8,2.294c-.105,3.69,2.02,7.122,2.189,10.807a3.564,3.564,0,0,0,.387,1.935,8.015,8.015,0,0,0,.829.843,4.79,4.79,0,0,1,.8,3.513c-.025.5-.052,1-.086,1.492a74.306,74.306,0,0,1-3.988,19.471,10.611,10.611,0,0,1-.829,1.935,9.376,9.376,0,0,1-2.051,2.272,26.206,26.206,0,0,1-3.645,2.609,7.415,7.415,0,0,0-2.366,1.8A2.1,2.1,0,0,0,683.889,639.929Z" transform="translate(-510.785 -448.574)"/><path class="o" d="M683.889,697.937a3.151,3.151,0,0,0,2.374.478l3.778-.276c3-.221,6.105-.47,8.753-1.9a2.081,2.081,0,0,0,.727-.553,2.34,2.34,0,0,0,.318-1.191,55.165,55.165,0,0,1,2.427-12.047c1.658-5.21,4.146-10.345,4.113-15.8a79.328,79.328,0,0,1-9.621.475,74.309,74.309,0,0,1-3.988,19.471,10.616,10.616,0,0,1-.829,1.935,9.376,9.376,0,0,1-2.051,2.272,26.207,26.207,0,0,1-3.646,2.609,7.415,7.415,0,0,0-2.366,1.8A2.119,2.119,0,0,0,683.889,697.937Z" transform="translate(-510.785 -506.582)"/><path class="i" d="M678.4,764.913a14.238,14.238,0,0,0,2.6-1.244l4.165-2.349a3.53,3.53,0,0,1,1.235-.5l.5,3.717a2.879,2.879,0,0,1-.5,2.6,2.422,2.422,0,0,1-.829.431,15.949,15.949,0,0,1-4.743.583c-4.914.158-9.878.732-14.72-.13a2.469,2.469,0,0,1-1.589-.746,1.687,1.687,0,0,1,.1-1.915,4.444,4.444,0,0,1,1.6-1.247c1.233-.663,2.512-1.227,3.792-1.794a.37.37,0,0,1,.263-.044c.124.041.163.193.2.321a3.335,3.335,0,0,0,1.785,2.051C672.275,764.642,676.562,765.5,678.4,764.913Z" transform="translate(-496.952 -574.725)"/><path class="n" d="M665.81,332.412c1.346-1.658,1.382-3.974,1.349-6.1,0-.829-.025-1.686-.055-2.529v-.019a28.507,28.507,0,0,0-.489-4.616h0a16.791,16.791,0,0,0-.58-2.156c.182-.041.365-.08.553-.113a22.648,22.648,0,0,1,8.775,0,17.9,17.9,0,0,1,2.487.323.829.829,0,0,1,.5.351,4.725,4.725,0,0,1-.359,1.913h0a3.735,3.735,0,0,0-.193,1.061,7.284,7.284,0,0,0,.155,1.009c.13.611.3,1.216.381,1.835.141,1.056.017,2.131.086,3.195a4.062,4.062,0,0,0,1.186,2.877A55.865,55.865,0,0,0,665.81,332.412Z" transform="translate(-498.066 -253.17)"/><path class="d" d="M681.095,321.427c-.368.03-.732.066-1.106.108a55.686,55.686,0,0,0-10.845,2.266v-.019l-.489-4.616h0v-.843c0-.473-.014-.951-.025-1.426a22.647,22.647,0,0,1,8.775,0,17.891,17.891,0,0,1,2.487.323c0,.451,0,.9.017,1.352a6.026,6.026,0,0,0,.124.912h0A3.471,3.471,0,0,0,681.095,321.427Z" transform="translate(-500.106 -253.184)"/><circle class="n" cx="10.226" cy="10.226" r="10.226" transform="translate(163.789 49.059)"/><path class="p" d="M644.363,383.346a20.025,20.025,0,0,1,4.179-18.4,11.921,11.921,0,0,1,3.2-2.968,10.747,10.747,0,0,1,4.994-.846,11.092,11.092,0,0,1,4.444.6,10.228,10.228,0,0,1,4.251,4.256,13.56,13.56,0,0,1,2.388,5.989c.094,1.285-.133,2.59.058,3.869.243,1.622,1.147,3.076,1.517,4.674.2.862.243,1.755.373,2.634a24.679,24.679,0,0,0,.851,3.549,127.345,127.345,0,0,0,11.21,26.179,47.464,47.464,0,0,1,3.789,7.5A6.256,6.256,0,0,1,686,424.1a3.857,3.857,0,0,1-5.088,2.366.97.97,0,0,1-.531,1.177,3.167,3.167,0,0,1-1.465.276l-17.069.453a6.16,6.16,0,0,0-1.329.18c-2.007.514-1.252,1.382-1.468,2.106-.263.884-1.531.813-2.416.553.135,1.291.166,2.869-1.5,3.245a2.816,2.816,0,0,1-1.3-.044,27.2,27.2,0,0,0-9.27-.746c-1.139.105-2.44.232-3.283-.553a3.741,3.741,0,0,1-.909-2.369c-1.7-13.543,1.8-27.1,4.422-40.485a16.068,16.068,0,0,0-.3-6.492Z" transform="translate(-479.33 -285.503)"/><path class="c" d="M733.523,363.3a16.462,16.462,0,0,1,1.036,3.507c.108.973-.022,1.957.036,2.932a15.03,15.03,0,0,0,.666,3.187,50.4,50.4,0,0,0,1.965,5.923,3.99,3.99,0,0,1,.5,2.728c-.3.9-1.224,1.454-1.49,2.347a2.78,2.78,0,0,0,.981,2.623c.7.688,1.586,1.177,2.239,1.91a13.388,13.388,0,0,1,1.606,2.764,25.574,25.574,0,0,0,2.435,3.552l3.341,4.336a2.609,2.609,0,0,0,.8.774c1.106.575,2.263-.583,3.388-1.106,1.493-.71,3.239-.293,4.889-.174s3.637-.31,4.226-1.852a4.068,4.068,0,0,0,.119-1.935,19.277,19.277,0,0,0-1.885-6.337,22.881,22.881,0,0,1-1.716-3.665c-.309-1.053-.37-2.161-.616-3.231s-.68-2.092-1.028-3.137c-2.471-7.424-.614-15.547-1.412-23.33-.3-2.872-1.172-6.02-3.643-7.515a10.37,10.37,0,0,0-4.975-1.106l-.788-.036-1.269-.064a20.758,20.758,0,0,0-5.464.229c-2.515.553-5.542,2.507-5.641,5.315A32.739,32.739,0,0,0,733.523,363.3Z" transform="translate(-545.827 -274.788)"/><path class="d" d="M772.09,346.54a31.864,31.864,0,0,1,.506,5.7c.05,5.456.638,10.89,1.23,16.307l.39,3.593a3.8,3.8,0,0,0,.553,1.893,1.3,1.3,0,0,0,1.747.4,13.3,13.3,0,0,0,.194-3.908q-.207-4.171-.412-8.344c-.133-2.709-.276-5.42-.605-8.112a53.677,53.677,0,0,0-1.139-6.194,7.312,7.312,0,0,0-.4-1.235l-.788-.036Z" transform="translate(-574.972 -274.945)"/><path class="c" d="M676.982,354.47a10.468,10.468,0,0,0-5.077.221,12.947,12.947,0,0,0-5.716,5.633c-.943,2.167-.575,4.665,0,6.959,1.567,6.318,4.679,12.412,9.673,16.583a36.03,36.03,0,0,0,4.839,3.317,32.95,32.95,0,0,0,6.94,3.236,4.25,4.25,0,0,0,2.109.238,1.663,1.663,0,0,0,1.382-1.432,81.28,81.28,0,0,1-11.169-8.059,23.082,23.082,0,0,1-2.739-2.487c-1.266-1.423-2.159-3.143-3.386-4.6a26.391,26.391,0,0,1-3.317-3.905,10.419,10.419,0,0,1-1.031-3.256,12.317,12.317,0,0,1,.431-6.934,6.09,6.09,0,0,1,5.37-3.9,9.522,9.522,0,0,1,3.463.965L685.749,360c-.086-.039.4-1.252.379-1.421-.066-.528-.16-.536-.553-.937a8.976,8.976,0,0,0-2.557-1.528A21.874,21.874,0,0,0,676.982,354.47Z" transform="translate(-497.922 -280.537)"/><path class="q" d="M650.575,263.281a11.837,11.837,0,0,0,5.359-2.764l-1.462,7.672a37.727,37.727,0,0,0,4.229-2.277,24.449,24.449,0,0,1-1.382,10.367,13.881,13.881,0,0,1-6.879,7.642c2.841.475,5.392-1.564,7.921-2.943,1.763-.959,4.776.028,6.705-.553a21.236,21.236,0,0,0,4.793-1.761c2.742-1.6,3.364-6.274,3.919-9.4a20.338,20.338,0,0,0-.873-9.4,16.537,16.537,0,0,0-1.241-3.112,10.74,10.74,0,0,0-15.337-3.82,33.317,33.317,0,0,0-6.857,6.487c-.276.323-1.418,1.473-1.039,1.957.462.586,3.17-1.083,3.629-1.31C651.927,260.573,651.1,263.151,650.575,263.281Z" transform="translate(-485.434 -205.931)"/><g class="r" transform="translate(160.595 84.477)"><path d="M655.988,455.414a2.817,2.817,0,0,1-1.3-.044,27.2,27.2,0,0,0-9.27-.746c-1.139.105-2.44.232-3.283-.553a3.741,3.741,0,0,1-.909-2.369c-1.7-13.543,1.8-27.1,4.422-40.485a16.069,16.069,0,0,0-.3-6.492l-.124-.428a19.582,19.582,0,0,1,.174-11.147,19.732,19.732,0,0,0-1.009,13.366l.124.428a16.08,16.08,0,0,1,.3,6.492c-2.617,13.38-6.114,26.95-4.422,40.485a3.756,3.756,0,0,0,.909,2.369c.829.777,2.145.65,3.284.553a27.2,27.2,0,0,1,9.27.746,2.817,2.817,0,0,0,1.3.044c1.36-.307,1.589-1.415,1.556-2.512A2.164,2.164,0,0,1,655.988,455.414Z" transform="translate(-639.941 -393.15)"/><path d="M727.09,586.626a.97.97,0,0,1-.531,1.177,3.165,3.165,0,0,1-1.465.276l-17.069.453a6.168,6.168,0,0,0-1.329.18c-2.007.514-1.252,1.382-1.468,2.106-.263.884-1.531.813-2.416.553a4.2,4.2,0,0,1-.232,2.344c.777.116,1.611.014,1.819-.685s-.539-1.592,1.468-2.106a6.159,6.159,0,0,1,1.329-.18l17.058-.453a3.166,3.166,0,0,0,1.465-.276.97.97,0,0,0,.531-1.177,3.856,3.856,0,0,0,5.088-2.366,3.98,3.98,0,0,0,.144-.951A3.83,3.83,0,0,1,727.09,586.626Z" transform="translate(-685.268 -532.352)"/></g><path class="n" d="M623.773,380.56a95.634,95.634,0,0,1,3.889,9.582,19.035,19.035,0,0,1,1.4,8.153c-.3,2.764-1.935,5.555-4.588,6.426a12.126,12.126,0,0,1-3.521.4,74.592,74.592,0,0,0-8.488.685,37.375,37.375,0,0,1-3.955.44c-1.874.061-3.748-.232-5.616-.08-3.024.246-5.9,1.658-8.93,1.658a2.268,2.268,0,0,1-1.078-.2,2.474,2.474,0,0,1-.987-1.542c-.423-1.349-.755-2.9-.039-4.115.882-1.5,2.885-1.8,4.624-1.935q5.87-.415,11.755-.58c3.347-.094,6.973-.221,9.568-2.338a1.365,1.365,0,0,0,.417-.481,1.534,1.534,0,0,0-.033-.987,42.983,42.983,0,0,1-1.31-12.313,1.824,1.824,0,0,1,.276-1.056,1.733,1.733,0,0,1,.876-.509,12.827,12.827,0,0,1,7.153-.2" transform="translate(-444.254 -299.562)"/><path class="p" d="M680.571,370.652a2.076,2.076,0,0,0-1,.738c.111-1.153-.039-2.316-.017-3.477a5.285,5.285,0,0,1,.97-3.272,5.229,5.229,0,0,1,4-1.6,8.4,8.4,0,0,1,5.951,2.031,6.08,6.08,0,0,1,1.866,3.593c.05.379.216,1.8-.18,2.042-.345.216-1.658-.528-2.081-.647A13.963,13.963,0,0,0,680.571,370.652Z" transform="translate(-508.009 -286.882)"/><ellipse class="e" cx="2" cy="2.5" rx="2" ry="2.5" transform="translate(129.106 13.514)"/><circle class="e" cx="2" cy="2" r="2" transform="translate(141.106 52.514)"/><ellipse class="e" cx="2" cy="2.5" rx="2" ry="2.5" transform="translate(105.106 15.514)"/><ellipse class="e" cx="5.5" cy="5" rx="5.5" ry="5" transform="translate(42.106 101.514)"/><ellipse class="e" cx="1.5" cy="2" rx="1.5" ry="2" transform="translate(246.106 25.514)"/><circle class="e" cx="6.5" cy="6.5" r="6.5" transform="translate(244.106 47.514)"/><ellipse class="e" cx="1.5" cy="2" rx="1.5" ry="2" transform="translate(259.106 33.514)"/><circle class="e" cx="2" cy="2" r="2" transform="translate(241.106 69.514)"/><ellipse class="e" cx="2" cy="1.5" rx="2" ry="1.5" transform="translate(125.106 30.514)"/><circle class="e" cx="2" cy="2" r="2" transform="translate(53.106 128.514)"/><circle class="e" cx="2" cy="2" r="2" transform="translate(49.106 83.514)"/><ellipse class="e" cx="2" cy="1.5" rx="2" ry="1.5" transform="translate(156.106 12.514)"/><ellipse class="e" cx="2" cy="1.5" rx="2" ry="1.5" transform="translate(162.106 30.514)"/></g></svg>