<svg xmlns="http://www.w3.org/2000/svg" width="281.565" height="356" viewBox="0 0 281.565 356"><defs><style>.a{fill:#e6e6e6;}.b{fill:#2f2e41;}.c{fill:#3f3d56;}.d{fill:#ee2d7c;}.e{fill:#f9a825;}.f{fill:#ff6584;opacity:0.5;}.g{fill:#a0616a;}.h{fill:#15f761;}.i{fill:#ffb9b9;}</style></defs><path class="a" d="M292.632,489.77H22.16v8.8H64.342V582.21l9-.452-.271-83.184H237.362V582.21l8.5,2.26.22-85.9h46.545Z" transform="translate(-11.6 -254.151)"/><rect class="a" width="270.472" height="8.804" transform="translate(11.093 209.28)"/><rect class="a" width="270.472" height="8.804" transform="translate(11.093 187.271)"/><rect class="a" width="270.472" height="8.804" transform="translate(11.093 165.261)"/><path class="a" d="M292.632,489.77H22.16v8.8H64.342V582.21l9-.452-.271-83.184H237.362V582.21l8.5,2.26.22-85.9h46.545Z" transform="translate(-11.6 -254.151)"/><rect class="a" width="270.472" height="8.804" transform="translate(11.093 209.28)"/><rect class="a" width="270.472" height="8.804" transform="translate(11.093 187.271)"/><rect class="a" width="270.472" height="8.804" transform="translate(11.093 165.261)"/><path class="b" d="M113.053,261.972l-35.335,8.16-14.93-28.413L93,229.816Z" transform="translate(-32.857 -119.256)"/><rect class="c" width="101.26" height="3.905" transform="translate(103.285 162.63)"/><path class="d" d="M620.837,365.023h-1.812a3.908,3.908,0,0,0,.522-1.952v-6.508a3.887,3.887,0,0,0-3.87-3.9h-1.515a3.922,3.922,0,0,0,.225-1.3v-6.508a3.887,3.887,0,0,0-3.87-3.9H566.66a3.887,3.887,0,0,0-3.87,3.9v6.508a3.92,3.92,0,0,0,.225,1.3H561.5a3.887,3.887,0,0,0-3.87,3.9v6.508a3.908,3.908,0,0,0,.522,1.953H556.34a3.887,3.887,0,0,0-3.87,3.9v6.508a3.887,3.887,0,0,0,3.87,3.9h64.5a3.887,3.887,0,0,0,3.87-3.9v-6.508a3.887,3.887,0,0,0-3.87-3.9Z" transform="translate(-434.351 -215.408)"/><path class="a" d="M625.838,339.814c0-1.617-10.973-2.929-24.509-2.929s-24.509,1.311-24.509,2.929c0,.8,2.71,1.531,7.095,2.06v2.658a.812.812,0,0,0,.806.814h.322a.812.812,0,0,0,.806-.813v-2.448c1.01.1,2.09.187,3.225.266v2.182a.812.812,0,0,0,.806.814h.323a.812.812,0,0,0,.806-.814V342.47c2.958.164,6.235.26,9.691.27a.805.805,0,0,0-.017.165v2.929a.812.812,0,0,0,.806.814h.322a.812.812,0,0,0,.806-.814v-2.929a.821.821,0,0,0-.018-.167c2.972-.018,5.8-.1,8.4-.233v2.678a.812.812,0,0,0,.806.814h.322a.812.812,0,0,0,.806-.813v-2.789c2.714-.175,5.117-.409,7.095-.688v2.176a.812.812,0,0,0,.806.813h.322a.812.812,0,0,0,.806-.813v-2.489C624.414,340.937,625.838,340.4,625.838,339.814Z" transform="translate(-447.092 -213.303)"/><rect class="c" width="51.597" height="1.302" transform="translate(128.439 136.599)"/><rect class="c" width="60.627" height="1.302" transform="translate(123.924 148.963)"/><rect class="c" width="70.301" height="1.302" transform="translate(119.409 160.678)"/><rect class="a" width="1.935" height="11.064" transform="translate(152.947 115.122)"/><path class="e" d="M626.935,310.192c0,2.218-1.225,2.259-2.737,2.259s-3.993-.439-2.737-2.259c1.325-1.92,3.6-5.58,2.737-5.774C624.2,304.418,626.935,307.974,626.935,310.192Z" transform="translate(-470.27 -196.455)"/><path class="f" d="M627.073,316.792c0,.878-.485.894-1.083.894s-1.581-.174-1.083-.894c.524-.76,1.424-2.209,1.083-2.285A5.437,5.437,0,0,1,627.073,316.792Z" transform="translate(-472.181 -201.69)"/><rect class="a" width="1.935" height="11.064" transform="translate(163.912 115.773)"/><path class="e" d="M649.932,311.545c0,2.218-1.225,2.259-2.737,2.259s-3.993-.439-2.737-2.259c1.325-1.92,3.6-5.58,2.737-5.774C647.2,305.771,649.932,309.327,649.932,311.545Z" transform="translate(-482.303 -197.157)"/><path class="f" d="M650.071,318.145c0,.878-.485.894-1.083.894s-1.581-.174-1.083-.894c.524-.76,1.424-2.209,1.083-2.285A5.434,5.434,0,0,1,650.071,318.145Z" transform="translate(-484.214 -202.392)"/><rect class="a" width="1.935" height="11.064" transform="translate(142.628 115.773)"/><path class="e" d="M605.29,311.545c0,2.218-1.225,2.259-2.737,2.259s-3.993-.439-2.737-2.259c1.325-1.92,3.6-5.58,2.737-5.774C602.554,305.771,605.29,309.327,605.29,311.545Z" transform="translate(-458.945 -197.157)"/><path class="f" d="M605.429,318.145c0,.878-.485.894-1.083.894s-1.581-.174-1.083-.894c.524-.76,1.424-2.209,1.083-2.285A5.434,5.434,0,0,1,605.429,318.145Z" transform="translate(-460.856 -202.392)"/><path class="b" d="M814.552,345.028l-33.931-6.184c-2.372-9.5-5.64-19.539-.4-28.133,1.532-6.49,8.418-8.346,15.4-9.95a18.03,18.03,0,0,1,18.674,6.785,15.3,15.3,0,0,1,2.6,13.515C820.261,326.106,818.653,338.455,814.552,345.028Z" transform="translate(-552.049 -194.311)"/><path class="b" d="M710.178,631.43l-14.772-10.189,19.426-68.35,20.492-34.165-37.957,23.3,1.979,45.5-19.122,9.786-5.115-56.438a18.488,18.488,0,0,1,9.12-17.685l31.284-18.073,2.474-25.958,34.521-5.347c13.346,17.365,20.435,33.3,14.307,46.218L735.7,560.488Z" transform="translate(-498.479 -284.354)"/><path class="b" d="M708.5,781.8s-2.638-5.361-5.383-3.657-10.028,9.407-10.028,9.407-13.405,3.868-4.153,7.668,12.56,3.019,12.736,2.274,2.182-2.627,2.182-2.627l3.518,1.633,5.524-.248s5.459-13.2,3.117-13.205S708.714,784.21,708.5,781.8Z" transform="translate(-504.052 -442.104)"/><path class="b" d="M698.941,710.586s-5.892-.695-5.975,2.556,2.34,13.613,2.34,13.613-4.1,13.446,4.1,7.7,9.361-8.973,8.838-9.529-.991-3.278-.991-3.278l3.276-2.083,2.808-4.806s-7.986-11.821-9.266-9.842S701.061,711.725,698.941,710.586Z" transform="translate(-507.862 -404.163)"/><ellipse class="g" cx="12.799" cy="12.915" rx="12.799" ry="12.915" transform="translate(227.913 110.644)"/><path class="g" d="M790.41,385.359l-31.391-.17c3.439-9.034,7.123-17.344,13.606-17.382,5.112-4.793,4.554-11.268,2.127-18.3l15.975,2c-.742,4.647.321,8.487,4.347,11C791.016,370.381,788.747,378.07,790.41,385.359Z" transform="translate(-542.423 -219.854)"/><path class="h" d="M800.824,437.248,757.289,440.5l-3.3-20.607c-9.092-8.761-8-17.586.4-26.457l3.065-11.433,6.7-2.077h0a7.165,7.165,0,0,0,.1,7.9,7.018,7.018,0,0,0,7.268,2.931l2.455-.524a7.048,7.048,0,0,0,4.462-3.1l8.836-13.814,4.6.575a2.534,2.534,0,0,1,2.16,2l4.269,20.359C792.953,404.221,800.859,426.414,800.824,437.248Z" transform="translate(-536.459 -232.208)"/><path class="g" d="M760.049,496.617l4.377,8a6.358,6.358,0,0,1,.419,5.159,6.282,6.282,0,0,1-3.549,3.738h0a6.2,6.2,0,0,1-5.9-.664,6.325,6.325,0,0,1-2.689-5.341l.21-8.546-9.071-32.79.958-22.634,9.5,1.547-.2,20.973Z" transform="translate(-534.484 -268.646)"/><path class="g" d="M825.642,482.117l-4.093,8.147a6.358,6.358,0,0,0-.237,5.171,6.276,6.276,0,0,0,3.678,3.608h0a6.2,6.2,0,0,0,5.873-.874,6.329,6.329,0,0,0,2.5-5.434l-.511-8.533,7.912-33.094-1.753-22.586-9.443,1.886.937,20.952Z" transform="translate(-574.788 -260.855)"/><path class="h" d="M754.958,418.715l-14.526-3.492,5.343-18.057a11.034,11.034,0,0,1,8.367-7.7l3.5-.711Z" transform="translate(-532.698 -240.217)"/><path class="h" d="M831.228,406.3l.291-11.354,2.732-18.508a2.533,2.533,0,0,1,2.469-2.172h0a2.509,2.509,0,0,1,1.428.427l12.077,28.369C848.011,408.237,834.078,400.143,831.228,406.3Z" transform="translate(-580.205 -232.702)"/><path class="b" d="M452.055,634.053,465.3,621.91l-28.56-65-24.956-31,40.773,17.807,4.243,45.341,20.275,7.039-2.628-56.612A18.433,18.433,0,0,0,463,523.235l-33.451-13.558-5.989-25.368-34.922-.5c-10.852,19.053-15.7,35.821-7.87,47.765l36.337,35.759Z" transform="translate(-342.496 -289.542)"/><path class="b" d="M538.976,773.9s1.882-5.676,4.833-4.37,11.216,7.925,11.216,7.925,13.805,1.971,5.158,7.019-12.029,4.734-12.305,4.02-2.519-2.3-2.519-2.3L542.1,788.3l-5.505.521s-7.208-12.32-4.888-12.647S539.1,776.322,538.976,773.9Z" transform="translate(-423.245 -437.71)"/><path class="b" d="M550.7,700.993s5.741-1.506,6.266,1.7S556.5,716.5,556.5,716.5s5.9,12.749-3.014,8.192-10.5-7.588-10.053-8.211.535-3.385.535-3.385l-3.529-1.609-3.437-4.371s6.3-12.817,7.836-11.034S548.755,702.415,550.7,700.993Z" transform="translate(-426.26 -399.61)"/><ellipse class="i" cx="12.799" cy="12.915" rx="12.799" ry="12.915" transform="translate(37.549 114.231)"/><path class="i" d="M398.718,392.11l31.07-4.526c-4.638-8.471-9.42-16.191-15.846-15.328-5.717-4.038-6.047-10.528-4.6-17.828l-15.551,4.195c1.368,4.5.839,8.45-2.805,11.5C396.075,377.358,399.371,384.659,398.718,392.11Z" transform="translate(-349.857 -222.407)"/><path class="d" d="M389.565,434.609c11.04,14.5,22.362,20.235,34.534-.5l1-9.251c7.811-9.94,5.524-18.529-4-26.15l-4.594-10.9-6.923-1.126h0a7.162,7.162,0,0,1,.974,7.836,7.036,7.036,0,0,1-6.8,3.912l-2.5-.178a7.025,7.025,0,0,1-4.843-2.452l-10.635-12.456-4.481,1.209a2.542,2.542,0,0,0-1.867,2.282l-1.452,20.758C384.374,414.743,388.054,423.882,389.565,434.609Z" transform="translate(-343.053 -237.412)"/><path class="i" d="M346.294,437.519l-24.452-5.01,16.24-15.248L331.9,405.983l-26.249,28.172a3.793,3.793,0,0,0-.677,3.848,3.738,3.738,0,0,0,3.07,2.383l35.55,3.973,1.459,6.492a5.5,5.5,0,0,0,3.256,3.883,5.424,5.424,0,0,0,5.021-.457h0a5.546,5.546,0,0,0,.962-8.5Z" transform="translate(-304.723 -249.159)"/><path class="i" d="M467.634,495.9l-3.245,8.527a6.358,6.358,0,0,0,.288,5.168,6.26,6.26,0,0,0,4.025,3.21h0a6.211,6.211,0,0,0,5.754-1.476,6.34,6.34,0,0,0,1.935-5.663l-1.373-8.435,4.514-33.737L475.5,441.21l-9.2,2.851,3.058,20.746Z" transform="translate(-388.047 -267.439)"/><path class="d" d="M456.965,420.472,470.877,415l-7.754-17.144a11,11,0,0,0-9.338-6.468l-3.567-.218Z" transform="translate(-380.85 -241.471)"/><path class="d" d="M357.665,410.738l14.833-5.067-5.23-17.953a2.525,2.525,0,0,0-2.742-1.809h0a2.514,2.514,0,0,0-1.356.621l-15.152,13.564C350.916,404.91,354,405.031,357.665,410.738Z" transform="translate(-327.376 -238.731)"/><path class="b" d="M389,298.407s7.828,1.486,9.638,11.336a18.242,18.242,0,0,1,.153,5.03c-.181,1.9.081,5.9,4.162,10.617a103.121,103.121,0,0,1,7.429,9.628h0l-8.179,2.2-3.654-13.674a70.277,70.277,0,0,0-8.1-18.787l-.075-.122s-2.717,7.324-10,8.328l2.245-2.983s-8.512,4.965-13.334,6.482a3.209,3.209,0,0,0-1.022,5.559l.1.081c3.547,2.718,10.783,9.2,7.924,15.479s.475,7.419.475,7.419l-6.147-2.36-2.814-1.216.284,2.1-13.735.29s-3.712-.023,2.881-10.02c0,0,1.591-3.749.285-6.612a15.327,15.327,0,0,1-1.522-6.97C356.411,310.132,360.619,289.627,389,298.407Z" transform="translate(-330.146 -192.228)"/><path class="b" d="M785.938,310.458l11.824,7.593,1.075-2.169c7.139,5.2,5.606,18.515,2.15,33.624,0,0,12.492,4.625,13.974,0,2.639-8.23.537-27.659.537-27.659l-4.3-11.389-6.987-3.8-5.912-.542S792.925,303.408,785.938,310.458Z" transform="translate(-556.508 -197.072)"/><ellipse class="g" cx="1.612" cy="2.169" rx="1.612" ry="2.169" transform="translate(246.091 125.86)"/><ellipse class="a" cx="1.653" cy="1.668" rx="1.653" ry="1.668" transform="translate(121.429 30.913)"/><ellipse class="a" cx="1.653" cy="1.668" rx="1.653" ry="1.668" transform="translate(145.817 83.468)"/><ellipse class="a" cx="1.653" cy="1.668" rx="1.653" ry="1.668" transform="translate(139.203 45.928)"/><ellipse class="a" cx="1.653" cy="1.668" rx="1.653" ry="1.668" transform="translate(112.335 63.447)"/><path class="a" d="M578.731,146.9a9.062,9.062,0,0,1-.826,14.109c-.841.6-.036,2.011.814,1.4a10.7,10.7,0,0,0,1.152-16.664C579.109,145.04,577.966,146.188,578.731,146.9Z" transform="translate(-447.473 -114.003)"/><path class="a" d="M609.943,191.117a9.062,9.062,0,0,1-.826,14.109c-.841.6-.036,2.011.814,1.4a10.7,10.7,0,0,0,1.153-16.664c-.762-.709-1.905.439-1.14,1.15Z" transform="translate(-463.804 -136.948)"/><path class="a" d="M554.3,230.716a10.7,10.7,0,0,0,1.152,16.664c.849.605,1.656-.805.814-1.4a9.062,9.062,0,0,1-.826-14.109c.765-.711-.378-1.859-1.14-1.15Z" transform="translate(-433.503 -158.094)"/><path class="a" d="M577.726,208.658c-2.091-.229-4.691-.2-5.851,1.938-.913,1.681.195,4.252,2.3,4.026a.819.819,0,0,0,.214-1.6c-1.507-.47-2.835.986-2.813,2.452.024,1.684,1.661,2.688,3.025,3.231l.429-1.569a3.622,3.622,0,0,0-2.893.652,3.688,3.688,0,0,0-1.458,2.6,3.644,3.644,0,0,0,4.19,3.634c1.023-.144.588-1.712-.429-1.569a1.887,1.887,0,0,1-1.886-.906,1.924,1.924,0,0,1,.09-2.106,1.884,1.884,0,0,1,1.956-.739.806.806,0,0,0,.964-.576.815.815,0,0,0-.535-.993,3.018,3.018,0,0,1-1.764-1.372c-.187-.45.091-1.362.695-1.174l.214-1.6a.938.938,0,0,1-1.027-.772,1.443,1.443,0,0,1,.578-1.377c1.085-.933,2.691-.7,4-.56C578.756,210.4,578.748,208.77,577.726,208.658Z" transform="translate(-443.878 -146.714)"/><path class="a" d="M527.44,185.249c-2.092-.229-4.691-.2-5.851,1.938-.913,1.681.195,4.252,2.3,4.026a.819.819,0,0,0,.214-1.6c-1.507-.47-2.835.986-2.813,2.452.024,1.684,1.661,2.688,3.025,3.231l.429-1.569a3.622,3.622,0,0,0-2.893.652,3.688,3.688,0,0,0-1.458,2.6,3.644,3.644,0,0,0,4.19,3.634c1.023-.144.588-1.712-.429-1.569a1.887,1.887,0,0,1-1.886-.907,1.924,1.924,0,0,1,.09-2.106,1.884,1.884,0,0,1,1.956-.739.806.806,0,0,0,.964-.576.816.816,0,0,0-.535-.993,3.018,3.018,0,0,1-1.764-1.372c-.187-.45.091-1.362.694-1.174l.214-1.6a.937.937,0,0,1-1.027-.772,1.443,1.443,0,0,1,.578-1.377c1.085-.933,2.691-.7,4-.561,1.03.113,1.022-1.515,0-1.627Z" transform="translate(-417.567 -134.567)"/><path class="a" d="M632.213,247.38c2.091.229,4.691.2,5.851-1.938.913-1.681-.195-4.252-2.3-4.026a.819.819,0,0,0-.214,1.6c1.507.47,2.835-.986,2.813-2.452-.024-1.684-1.661-2.688-3.025-3.231L634.9,238.9a3.622,3.622,0,0,0,2.893-.652,3.688,3.688,0,0,0,1.458-2.6,3.644,3.644,0,0,0-4.19-3.634c-1.023.144-.588,1.712.429,1.569a1.887,1.887,0,0,1,1.886.906,1.924,1.924,0,0,1-.09,2.106,1.884,1.884,0,0,1-1.956.739.806.806,0,0,0-.964.576.815.815,0,0,0,.535.993,3.018,3.018,0,0,1,1.764,1.372c.187.45-.091,1.362-.694,1.174l-.214,1.6a.938.938,0,0,1,1.027.772,1.443,1.443,0,0,1-.578,1.377c-1.085.933-2.691.7-4,.561C631.183,245.64,631.191,247.268,632.213,247.38Z" transform="translate(-475.672 -158.863)"/><ellipse class="a" cx="1.653" cy="1.668" rx="1.653" ry="1.668" transform="translate(168.189)"/><ellipse class="a" cx="1.653" cy="1.668" rx="1.653" ry="1.668" transform="translate(192.578 52.555)"/><ellipse class="a" cx="1.653" cy="1.668" rx="1.653" ry="1.668" transform="translate(185.964 15.016)"/><ellipse class="a" cx="1.653" cy="1.668" rx="1.653" ry="1.668" transform="translate(159.095 32.534)"/><path class="a" d="M676.807,82.642a9.062,9.062,0,0,1-.826,14.109c-.841.6-.036,2.011.814,1.4a10.7,10.7,0,0,0,1.153-16.664c-.762-.709-1.905.439-1.14,1.15Z" transform="translate(-498.789 -80.659)"/><path class="a" d="M708.02,126.86a9.062,9.062,0,0,1-.826,14.109c-.841.6-.036,2.011.814,1.4a10.7,10.7,0,0,0,1.152-16.664c-.762-.709-1.905.439-1.14,1.15Z" transform="translate(-515.121 -103.604)"/><path class="a" d="M652.373,166.459a10.7,10.7,0,0,0,1.152,16.664c.849.605,1.656-.805.814-1.4a9.062,9.062,0,0,1-.826-14.109C654.278,166.9,653.136,165.75,652.373,166.459Z" transform="translate(-484.819 -124.75)"/><path class="a" d="M675.8,144.4c-2.091-.229-4.691-.2-5.851,1.938-.913,1.681.195,4.252,2.3,4.026a.819.819,0,0,0,.214-1.6c-1.507-.47-2.835.986-2.813,2.452.024,1.684,1.661,2.688,3.025,3.231l.429-1.569a3.622,3.622,0,0,0-2.893.652,3.688,3.688,0,0,0-1.458,2.6,3.644,3.644,0,0,0,4.19,3.634c1.023-.144.588-1.712-.429-1.569a1.887,1.887,0,0,1-1.886-.906,1.924,1.924,0,0,1,.09-2.106,1.884,1.884,0,0,1,1.956-.739.806.806,0,0,0,.964-.576.815.815,0,0,0-.535-.993,3.018,3.018,0,0,1-1.764-1.372c-.187-.45.091-1.362.695-1.174l.214-1.6a.938.938,0,0,1-1.027-.772,1.443,1.443,0,0,1,.578-1.377c1.085-.933,2.691-.7,4-.561,1.03.113,1.022-1.515,0-1.627Z" transform="translate(-495.195 -113.37)"/><path class="a" d="M625.516,120.992c-2.092-.229-4.691-.2-5.851,1.938-.913,1.681.195,4.252,2.3,4.026a.819.819,0,0,0,.214-1.6c-1.507-.47-2.835.986-2.813,2.452.024,1.684,1.661,2.688,3.025,3.231l.429-1.569a3.622,3.622,0,0,0-2.893.652,3.688,3.688,0,0,0-1.458,2.6,3.644,3.644,0,0,0,4.19,3.634c1.023-.144.588-1.712-.429-1.569a1.887,1.887,0,0,1-1.886-.906,1.924,1.924,0,0,1,.09-2.106,1.884,1.884,0,0,1,1.956-.739.806.806,0,0,0,.964-.576.815.815,0,0,0-.535-.993,3.018,3.018,0,0,1-1.764-1.372c-.187-.45.091-1.362.694-1.174l.214-1.6a.937.937,0,0,1-1.027-.772,1.443,1.443,0,0,1,.578-1.377c1.085-.933,2.691-.7,4-.56,1.03.113,1.022-1.515,0-1.627Z" transform="translate(-468.883 -101.223)"/><path class="a" d="M730.289,183.123c2.091.229,4.691.2,5.851-1.938.913-1.681-.195-4.252-2.3-4.026a.819.819,0,0,0-.214,1.6c1.507.47,2.835-.986,2.813-2.452-.024-1.684-1.661-2.688-3.025-3.231l-.429,1.569a3.622,3.622,0,0,0,2.893-.652,3.688,3.688,0,0,0,1.458-2.6,3.644,3.644,0,0,0-4.19-3.634c-1.023.144-.588,1.712.429,1.569a1.887,1.887,0,0,1,1.886.906,1.924,1.924,0,0,1-.09,2.106,1.884,1.884,0,0,1-1.956.739.806.806,0,0,0-.964.576.815.815,0,0,0,.535.993,3.018,3.018,0,0,1,1.764,1.372c.187.45-.091,1.362-.695,1.174l-.214,1.6a.937.937,0,0,1,1.027.772,1.442,1.442,0,0,1-.578,1.377c-1.085.933-2.691.7-3.995.561-1.03-.113-1.022,1.515,0,1.627Z" transform="translate(-526.989 -125.519)"/><path class="d" d="M821.089,288.123l-2.225-4.971L817.1,279.2l-2.561-5.724-1.77-3.95-2.4-5.376a.539.539,0,0,0-.931-.094l-2.478,3.484-1.919,2.69-2.779,3.9-1.914,2.7-2.779,3.9-1.914,2.691-1.424,2a.507.507,0,0,0-.1.262.572.572,0,0,0,.043.277.536.536,0,0,0,.439.317l25.939,2.612a.5.5,0,0,0,.437-.163.4.4,0,0,0,.055-.06.569.569,0,0,0,.1-.263.508.508,0,0,0-.048-.277Z" transform="translate(-560.793 -175.394)"/><path class="a" d="M521.8,197.479l-9.5-3.245,1.919-2.69,5.81,1.985Z" transform="translate(-268.056 -99.396)"/><path class="a" d="M520.977,214.262l-18.517-6.323,1.914-2.7,14.839,5.069Z" transform="translate(-262.906 -106.505)"/><path class="a" d="M822.663,306.948a.5.5,0,0,1-.437.163l-12.611-1.27-12.284-4.2,1.914-2.691Z" transform="translate(-562.469 -193.62)"/><ellipse class="d" cx="4.3" cy="4.339" rx="4.3" ry="4.339" transform="translate(245.049 81.944)"/><path class="d" d="M403.507,277.865l-2.7-4.724-2.145-3.753-3.112-5.44L393.4,260.2l-2.918-5.109a.539.539,0,0,0-.935,0l-2.123,3.715-1.645,2.869-2.381,4.16-1.639,2.874-2.381,4.16-1.639,2.869-1.22,2.131a.509.509,0,0,0-.075.271.572.572,0,0,0,.07.271.535.535,0,0,0,.468.271h26.067a.506.506,0,0,0,.419-.206.406.406,0,0,0,.048-.065.572.572,0,0,0,.07-.271A.508.508,0,0,0,403.507,277.865Z" transform="translate(-342.247 -170.715)"/><path class="a" d="M101.081,188.249l-9.771-2.277,1.644-2.869,5.977,1.394Z" transform="translate(-47.781 -95.015)"/><path class="a" d="M101.925,205.023l-19.048-4.436,1.64-2.874L99.78,201.27Z" transform="translate(-43.368 -102.597)"/><path class="a" d="M404.887,297.941a.506.506,0,0,1-.419.206H391.794L379.158,295.2l1.639-2.869Z" transform="translate(-343.669 -190.184)"/><ellipse class="d" cx="4.3" cy="4.339" rx="4.3" ry="4.339" transform="translate(43.465 77.593)"/></svg>