<svg xmlns="http://www.w3.org/2000/svg" width="294.117" height="233.325" viewBox="0 0 294.117 233.325"><defs><style>.a{fill:#f2f2f2;}.b{fill:#3f3d56;}.c{fill:#f65c26;}.d{opacity:0.1;}.e{fill:#6c63ff;}.f{fill:#2f2e41;}.g{fill:#d0cde1;}.h{fill:#cfcce0;}</style></defs><g transform="translate(-0.004 0.001)"><ellipse class="a" cx="4.14" cy="4.085" rx="4.14" ry="4.085" transform="translate(0.004 92.64)"/><ellipse class="a" cx="4.14" cy="4.085" rx="4.14" ry="4.085" transform="translate(29.159 117.61)"/><ellipse class="a" cx="4.14" cy="4.085" rx="4.14" ry="4.085" transform="translate(12.997 114.644)"/><path class="a" d="M199.942,463.658c-.111-.084-2.751-2.125-5.449-7.418-2.476-4.856-5.458-13.491-5.6-27.057a54.692,54.692,0,0,0-17.938-40.038l.4-.489a48.468,48.468,0,0,1,8.991,10.409,55.728,55.728,0,0,1,9.185,30.113c.274,25.657,10.7,33.9,10.8,33.984Z" transform="translate(-160.516 -291.268)"/><ellipse class="a" cx="4.14" cy="4.085" rx="4.14" ry="4.085" transform="translate(18.655 99.375)"/><ellipse class="a" cx="4.14" cy="4.085" rx="4.14" ry="4.085" transform="translate(18.883 133.282)"/><path class="a" d="M263.123,582.747s-7.516-7.923,1.339-19.355Z" transform="translate(-221.308 -411.101)"/><path class="a" d="M213.218,617.792s-5.642-9.316-19.222-4.074Z" transform="translate(-176.222 -444.516)"/><ellipse class="a" cx="4.14" cy="4.085" rx="4.14" ry="4.085" transform="translate(0.004 92.64)"/><ellipse class="a" cx="4.14" cy="4.085" rx="4.14" ry="4.085" transform="translate(29.159 117.61)"/><ellipse class="a" cx="4.14" cy="4.085" rx="4.14" ry="4.085" transform="translate(12.997 114.644)"/><path class="a" d="M199.942,463.658c-.111-.084-2.751-2.125-5.449-7.418-2.476-4.856-5.458-13.491-5.6-27.057a54.692,54.692,0,0,0-17.938-40.038l.4-.489a48.468,48.468,0,0,1,8.991,10.409,55.728,55.728,0,0,1,9.185,30.113c.274,25.657,10.7,33.9,10.8,33.984Z" transform="translate(-160.516 -291.268)"/><ellipse class="a" cx="4.14" cy="4.085" rx="4.14" ry="4.085" transform="translate(18.655 99.375)"/><ellipse class="a" cx="4.14" cy="4.085" rx="4.14" ry="4.085" transform="translate(18.883 133.282)"/><path class="a" d="M263.123,582.747s-7.516-7.923,1.339-19.355Z" transform="translate(-221.308 -411.101)"/><path class="a" d="M213.218,617.792s-5.642-9.316-19.222-4.074Z" transform="translate(-176.222 -444.516)"/><path class="b" d="M142.433,528.917h-3.184l.955-5.342h2.229Z" transform="translate(-94.904 -359.062)"/><ellipse class="c" cx="18.742" cy="15.959" rx="18.742" ry="15.959" transform="translate(27.56 169.423)"/><path class="d" d="M241.936,652.6a48.509,48.509,0,0,1,1.083-25.206l.6.215a47.856,47.856,0,0,0-1.061,24.848Z" transform="translate(-208.091 -454.991)"/><path class="d" d="M315.474,652.715l-.591-.235c6.044-14.8.074-26.328.013-26.443l.564-.292C315.523,625.863,321.628,637.647,315.474,652.715Z" transform="translate(-258.614 -453.862)"/><path class="d" d="M258.236,650.574c-7.651-11.624-.121-30.631-.044-30.822l.591.233c-.076.188-7.485,18.9-.013,30.246Z" transform="translate(-217.669 -449.752)"/><path class="d" d="M300.415,650.574l-.534-.342c7.474-11.355.062-30.059-.013-30.246l.591-.233C300.536,619.943,308.066,638.949,300.415,650.574Z" transform="translate(-248.38 -449.752)"/><path class="d" d="M112.866,559.222l2.309,3.946,2.309,3.946h-9.235l2.309-3.946Z" transform="translate(-73.776 -383.509)"/><path class="b" d="M114.967,561.891,116.785,565,118.6,568.1h-7.272L113.149,565Z" transform="translate(-75.877 -385.339)"/><path class="d" d="M141.637,591.366l-1.194-2.041-1.194-2.041h4.777l-1.194,2.041Z" transform="translate(-94.904 -402.753)"/><path class="b" d="M142.724,591.878l-.94-1.607-.94-1.607H144.6l-.94,1.607Z" transform="translate(-95.991 -403.7)"/><path class="d" d="M158.866,559.222l2.309,3.946,2.309,3.946h-9.235l2.309-3.946Z" transform="translate(-105.128 -383.509)"/><path class="b" d="M160.967,561.891,162.785,565,164.6,568.1h-7.272L159.149,565Z" transform="translate(-107.228 -385.339)"/><rect class="d" width="15.285" height="3.175" transform="translate(38.931 189.948)"/><rect class="b" width="12.101" height="2.514" transform="translate(40.523 190.278)"/><path class="c" d="M131.724,603.789l-.94-1.607-.94-1.607H133.6l-.94,1.607Z" transform="translate(-88.494 -411.868)"/><path class="c" d="M151.724,603.789l-.94-1.607-.94-1.607H153.6l-.94,1.607Z" transform="translate(-102.125 -411.868)"/><path class="a" d="M467.384,166.6l-6.377-23.884.938-.237s-6.465-31.171-9.934-32.882c-2.717-1.339-3.97-.824-3.97-.824l-12.828.707a13.958,13.958,0,0,1-4.264-3.968c4.335-1.138,8.331-3.07,10.888-6.271l-.911-2.546s1.594.074,2.05,2.321l.91-1.348a20.738,20.738,0,0,0-5.617-4.342c-2.64-1.523-4.17-5.111-4.909-7.4a9.925,9.925,0,0,0-3.347-4.852c-2.8-2.147-7.491-4.088-13.148.124,0,0-5.692-.822-7.587,7.341a149.158,149.158,0,0,1-5.535,17.449l3.187.149s-.305-5.391,1.44-6.515l.609,6.889a72.26,72.26,0,0,0,11.988.425l-.235,4.895-13.746,6.126s-1.149-.309-1.044,2.887,3.98,35.667,3.98,35.667l.913-.226,3.377,24.037s-2.294,15.463,4.5,14.122c2.864-.566,3.218-3.5,2.671-6.7.455,1.053.955,2.117,1.507,3.191,10.766,20.923,12.544,27,12.544,27l12.235,41.54a17.13,17.13,0,0,0,4.535-.2l2.885,9.993S453,280.413,460,280.1l.208-.01a5.508,5.508,0,0,0,4.3-2.5,5.36,5.36,0,0,0,.482-4.9l-2.17-5.482s-1.216-8.059-3.929-10.977l.061-.052-9.832-40.407-5.022-24.739,8.679,26.7,5.545,27.316s.246.161.671.393a13.223,13.223,0,0,0,.793,4.142c1.15,2.989,3.451,11.648,3.451,11.648s1.883,9.277,5.539,8.555c1.306-.258,2.185-1.594,2.776-3.205a13.178,13.178,0,0,0-.729-10.479l-3.515-6.933-.473-2.332a6.768,6.768,0,0,0,4.128-3.751l-5.128-30.615s-4.122-32.46-7.12-43.339c1.471-.717,2.406-1.3,2.406-1.3l-9.3-16.388a23.126,23.126,0,0,1-2.477-4.442h-.005a16.855,16.855,0,0,1-1.467-8.271,11.232,11.232,0,0,1,1.124-3.884,11.155,11.155,0,0,0,.711-1.851l2.426,11.953.625-.158L463,166.4s-1.04,16.288,5.75,14.946S467.384,166.6,467.384,166.6Zm-46.258-22.578a10.516,10.516,0,0,1,.637,6.216c-.024.123-.038.19-.038.19a7.243,7.243,0,0,0-1.3,1.645l-2.272-11.192c.629.574,1.3,1.127,2,1.816A5.342,5.342,0,0,1,421.126,144.026Zm-1.752,10.156q-.082.193-.162.392l.015-.355Zm-1.192,24.289.041-.95q.175.925.393,1.871c-.264-.581-.434-.922-.434-.922Z" transform="translate(-319.176 -78.713)"/><rect class="b" width="248.494" height="0.874" transform="translate(16.668 200.553)"/><path class="b" d="M452.433,40.917h-3.184l.955-5.342h2.229Z" transform="translate(-306.188 -24.397)"/><path class="e" d="M508.181,365.263l-1.6,26.282s-5.327,14.718,1.6,14.718,2.664-15.769,2.664-15.769l6.392-25.756Z" transform="translate(-387.935 -274.865)"/><path class="e" d="M658.674,355.226l1.6,26.282s5.327,14.718-1.6,14.718-2.664-15.769-2.664-15.769L649.618,354.7Z" transform="translate(-486.757 -267.982)"/><path class="f" d="M577.189,708.982l1.065,13.141s-4.262,10.513,2.664,11.564l.206.03a5.539,5.539,0,0,0,4.711-1.615,5.375,5.375,0,0,0,1.447-4.709l-1.036-5.8s.533-10.513-2.664-12.615A6.081,6.081,0,0,0,577.189,708.982Z" transform="translate(-437.234 -510.304)"/><path class="f" d="M608.01,674.219a14.709,14.709,0,0,0-.533,6.308c.533,3.154,1.065,12.09,1.065,12.09s0,9.461,3.729,9.461c1.332,0,2.46-1.14,3.359-2.605A13.185,13.185,0,0,0,617,689.057l-2.067-7.479V675.8Z" transform="translate(-457.933 -487.105)"/><path class="f" d="M532.088,368.083s-11.72,15.243-5.327,37.846,6.925,28.91,6.925,28.91l3.729,43.1s6.393,2.1,11.72-1.051l-1.6-41.525v-25.23l3.2,27.859v27.859s7.458,7.359,12.785.526l1.065-31.012s3.2-43.1,1.065-47.307-6.925-18.923-6.925-18.923Z" transform="translate(-401.721 -277.16)"/><ellipse class="e" cx="18.742" cy="15.959" rx="18.742" ry="15.959" transform="translate(126.275 16.088)"/><path class="e" d="M574.189,210.833l-3.2,12.615,9.589,27.333,7.458-28.91s-6.925-4.731-5.327-11.038Z" transform="translate(-433.169 -169.32)"/><path class="b" d="M563.807,303.083s-15.448,5.782-18.645-3.154A41.872,41.872,0,0,1,542.5,284.16s-4.794,18.4-12.785,18.4-12.252-2.628-12.252-2.628,5.86-18.4,11.187-21.551l.075-.179a10.518,10.518,0,0,0,.613-6.218,5.3,5.3,0,0,0-.687-1.488c-2.131-3.154-4.262-4.205-3.729-12.09l-4.262-14.718,14.7-3.343,7.676,23.843,6.989-23.344,12.721,1.792s1.065,18.923-4.262,25.756a11.293,11.293,0,0,0-1.875,3.59,16.834,16.834,0,0,0-.208,8.394h.005a22.991,22.991,0,0,0,1.545,4.836Z" transform="translate(-396.684 -189.557)"/><path class="b" d="M649.618,248.133l3.2-.526s1.332-.263,3.729,1.577c3.061,2.349,3.2,34.166,3.2,34.166l-10.121.526Z" transform="translate(-486.756 -194.531)"/><path class="b" d="M519.9,251.962l-2.664-1.051s-1.065-.526-1.6,2.628-3.2,35.743-3.2,35.743l11.187-.526V265.1Z" transform="translate(-393.263 -196.782)"/><path class="d" d="M551.936,164.6a48.508,48.508,0,0,1,1.083-25.206l.6.215a47.856,47.856,0,0,0-1.061,24.848Z" transform="translate(-419.376 -120.326)"/><path class="d" d="M625.474,164.715l-.591-.235c6.044-14.8.074-26.328.013-26.443l.564-.292C625.523,137.863,631.628,149.647,625.474,164.715Z" transform="translate(-469.898 -119.197)"/><path class="d" d="M568.236,162.574c-7.651-11.624-.121-30.631-.044-30.822l.591.233c-.076.188-7.485,18.9-.013,30.246Z" transform="translate(-428.953 -115.087)"/><path class="d" d="M610.415,162.574l-.534-.342c7.474-11.355.062-30.059-.013-30.246l.591-.233C610.536,131.943,618.066,150.95,610.415,162.574Z" transform="translate(-459.664 -115.087)"/><path class="d" d="M422.866,71.222l2.309,3.946,2.309,3.946h-9.235l2.309-3.946Z" transform="translate(-285.06 -48.844)"/><path class="b" d="M424.967,73.891,426.785,77,428.6,80.1h-7.272L423.149,77Z" transform="translate(-287.161 -50.674)"/><path class="d" d="M451.637,103.366l-1.194-2.041-1.194-2.041h4.777l-1.194,2.041Z" transform="translate(-306.188 -68.088)"/><path class="b" d="M452.724,103.878l-.94-1.607-.94-1.607H454.6l-.94,1.607Z" transform="translate(-307.275 -69.035)"/><path class="d" d="M468.866,71.222l2.309,3.946,2.309,3.946h-9.235l2.309-3.946Z" transform="translate(-316.412 -48.844)"/><path class="b" d="M470.967,73.891,472.785,77,474.6,80.1h-7.272L469.149,77Z" transform="translate(-318.512 -50.674)"/><rect class="d" width="15.285" height="3.175" transform="translate(137.647 36.612)"/><rect class="b" width="12.101" height="2.514" transform="translate(139.239 36.943)"/><path class="e" d="M441.724,115.789l-.94-1.607-.94-1.607H443.6l-.94,1.607Z" transform="translate(-299.778 -77.203)"/><path class="e" d="M461.724,115.789l-.94-1.607-.94-1.607H463.6l-.94,1.607Z" transform="translate(-313.409 -77.203)"/><path class="f" d="M458.546,258.926h-.912l.274-1.53h.638Z" transform="translate(-311.903 -176.52)"/><ellipse class="e" cx="5.367" cy="4.57" rx="5.367" ry="4.57" transform="translate(140.924 82.282)"/><path class="d" d="M584.934,350.4a13.856,13.856,0,0,1,.318-7.346l.6.215a13.478,13.478,0,0,0-.3,6.989Z" transform="translate(-442.432 -259.995)"/><path class="d" d="M606.475,350.407l-.591-.235a9.309,9.309,0,0,0,.013-7.385l.564-.292A9.754,9.754,0,0,1,606.475,350.407Z" transform="translate(-456.949 -259.612)"/><path class="d" d="M589.618,349.878c-2.255-3.426-.125-8.8-.033-9.032l.591.232c-.021.053-2.1,5.306-.024,8.457Z" transform="translate(-445.16 -258.481)"/><path class="d" d="M602.141,349.878l-.534-.342c2.077-3.156,0-8.4-.024-8.457l.591-.233C602.265,341.073,604.4,346.452,602.141,349.878Z" transform="translate(-454.017 -258.481)"/><path class="g" d="M870.443,723.109h-7.006V690.117a6.665,6.665,0,0,1,7.006,0Z" transform="translate(-632.487 -497.325)"/><rect class="b" width="65.598" height="0.628" transform="translate(202.927 225.47)"/><path class="g" d="M828.443,746.109h-7.006V713.117a6.666,6.666,0,0,1,7.006,0Z" transform="translate(-603.862 -513.099)"/><rect class="b" width="1.274" height="6.598" transform="translate(220.441 193.734)"/><path class="e" d="M828.079,667.086a3.822,3.822,0,0,1-7.642,0c0-2.082,3.821-8.8,3.821-8.8S828.079,665,828.079,667.086Z" transform="translate(-603.18 -476.179)"/><rect class="b" width="1.274" height="6.598" transform="translate(233.816 186.508)"/><path class="e" d="M870.08,644.086a3.822,3.822,0,0,1-7.643,0c0-2.082,3.821-8.8,3.821-8.8S870.08,642,870.08,644.086Z" transform="translate(-631.806 -460.406)"/><path class="g" d="M912.443,746.109h-7.006V713.117a6.666,6.666,0,0,1,7.006,0Z" transform="translate(-661.113 -513.099)"/><rect class="b" width="1.274" height="6.598" transform="translate(247.19 193.734)"/><path class="e" d="M912.079,667.086a3.822,3.822,0,0,1-7.642,0c0-2.082,3.821-8.8,3.821-8.8S912.079,665,912.079,667.086Z" transform="translate(-660.431 -476.179)"/><rect class="b" width="65.598" height="0.628" transform="translate(202.927 232.697)"/><path class="a" d="M345.286,260.17a8.291,8.291,0,0,1,.013,2.3c-.021.173-.048.344-.079.512h0a13.555,13.555,0,0,1-2.169,5.049c-.069.1-.109.15-.109.15l-.149-.112a14.17,14.17,0,0,1-3.03-3.281c-.072-.113-.145-.227-.214-.344a8.92,8.92,0,0,1-1.221-3.237l0-.017c-.018-.122-.034-.245-.046-.366a9.124,9.124,0,0,1,.276-3.191c.033-.13.068-.257.105-.383a14.023,14.023,0,0,1,1.9-3.926c.069-.1.109-.15.109-.15s.053.038.149.112a14.173,14.173,0,0,1,2.96,3.176c.072.108.142.217.212.329a9.549,9.549,0,0,1,1.093,2.436c.042.15.08.3.113.457S345.262,260.007,345.286,260.17Z" transform="translate(-274.535 -198.36)"/><path class="a" d="M749.2,262.255a8.386,8.386,0,0,1,1.237,1.955c.074.159.142.318.205.477h0a13.487,13.487,0,0,1,.839,5.421c-.007.12-.013.184-.013.184l-.186-.018a14.435,14.435,0,0,1-4.324-1.225c-.122-.059-.244-.118-.365-.182a9.1,9.1,0,0,1-2.761-2.123l-.011-.013c-.081-.094-.159-.19-.234-.288a9.2,9.2,0,0,1-1.462-2.86c-.041-.128-.079-.254-.114-.381a13.927,13.927,0,0,1-.47-4.326c.007-.12.013-.184.013-.184s.065,0,.186.018a14.437,14.437,0,0,1,4.208,1.171c.118.055.236.111.355.17a9.745,9.745,0,0,1,2.226,1.507c.116.106.229.216.339.33S749.088,262.129,749.2,262.255Z" transform="translate(-549.392 -202.142)"/><path class="a" d="M810.439,428.561a8.359,8.359,0,0,1-1.051,2.058c-.1.145-.2.285-.307.421h0a13.791,13.791,0,0,1-4.26,3.522c-.107.057-.166.085-.166.085l-.081-.167a13.955,13.955,0,0,1-1.184-4.282c-.012-.133-.024-.267-.032-.4a8.881,8.881,0,0,1,.405-3.431l.005-.016c.04-.117.082-.233.128-.347a9.224,9.224,0,0,1,1.718-2.718c.089-.1.179-.2.271-.294a14.275,14.275,0,0,1,3.5-2.643c.107-.057.166-.085.166-.085s.03.057.081.167a13.956,13.956,0,0,1,1.171,4.157c.014.128.027.257.037.388a9.486,9.486,0,0,1-.15,2.66c-.031.152-.068.306-.11.457S810.492,428.405,810.439,428.561Z" transform="translate(-591.52 -312.944)"/><path class="h" d="M920.96,225.854a21.487,21.487,0,0,0-21.565-21.279h0q-.278,0-.554.007a19.87,19.87,0,0,0-17.353,28.649l12.875,25.961a2.865,2.865,0,0,0,2.875,2.837h6.47l2.636-7.8,6.387,7.8h8.709l2.636-7.8,6.387,7.8h4.156a2.865,2.865,0,0,0,2.875-2.837Z" transform="translate(-643.374 -165.027)"/><ellipse class="b" cx="5.99" cy="5.911" rx="5.99" ry="5.911" transform="translate(239.487 48.768)"/><ellipse class="b" cx="5.99" cy="5.911" rx="5.99" ry="5.911" transform="translate(255.542 48.768)"/><ellipse class="h" cx="2.157" cy="2.128" rx="2.157" ry="2.128" transform="translate(243.321 52.551)"/><ellipse class="h" cx="2.157" cy="2.128" rx="2.157" ry="2.128" transform="translate(259.376 52.551)"/><ellipse class="h" cx="1.198" cy="1.182" rx="1.198" ry="1.182" transform="translate(246.436 49.714)"/><ellipse class="h" cx="1.198" cy="1.182" rx="1.198" ry="1.182" transform="translate(262.49 49.714)"/><ellipse class="b" cx="3.503" cy="3.456" rx="3.503" ry="3.456" transform="translate(249.539 64.346)"/><path class="h" d="M981.715,183.185l5.053-5.659a9.309,9.309,0,0,1,2.806-2.4,3.219,3.219,0,0,1,3.5.307c1.378,1.294.4,3.931-1.442,4.4a4.007,4.007,0,0,1-4.453-2.647,5.03,5.03,0,0,1,2.459-6.036c2.708-1.324,5.986-.007,8.96-.535a7.352,7.352,0,0,0,5.74-8.4" transform="translate(-713.101 -135.979)"/><path class="h" d="M859.2,179.185l-5.053-5.659a9.309,9.309,0,0,0-2.806-2.4,3.219,3.219,0,0,0-3.5.307c-1.378,1.294-.4,3.931,1.442,4.4a4.007,4.007,0,0,0,4.453-2.647,5.03,5.03,0,0,0-2.459-6.036c-2.708-1.324-5.986-.007-8.96-.535a7.352,7.352,0,0,1-5.74-8.4" transform="translate(-614.086 -133.235)"/></g></svg>